<svg xmlns="http://www.w3.org/2000/svg" viewBox="0 0.9 547.6 145.1" xmlns:v="https://vecta.io/nano"><defs><clipPath id="A"><path d="M-85-99h841.89v595.28H-85z"/></clipPath></defs><path d="M28.4 85.9H0V57.5h28.4zm56.7-56.7H56.7V.9h28.4zm0 113.4H56.7v-28.4h28.4z" fill="#00aee7"/><path d="M141.8 85.9h-28.4V57.5h28.4z" fill="#ce1041"/><path d="M10.8 111.8l20 20 25.9-25.9v-20h-20zm94.3-25.9h-20v20l25.9 25.9 20.1-20zM131 31.6l-20.1-20L85 37.5v20h20.1zm-120.3 0l25.9 26h20V37.5L30.7 11.6z" fill="#00aee7"/><g clip-path="url(#A)"><g fill="#ce1041"><path d="M189.6 48l-7.1 5.3-7.2-5.3 1.8-2.9 5.4 3 5.3-3zm2.1 9.1l-2.7 4.1q-2.3-1.7-4.9-1.7c-2 0-4 1-5.1 2.6-1.2 1.8-1.7 4.3-1.7 7.9 0 4.1.3 6.4 1.2 8.1 1.3 2.2 3.3 3.4 5.9 3.4 1.7 0 3.1-.5 4.6-1.5l.6-.5 2.8 3.9c-2.4 1.9-5 2.8-8.4 2.8-4.2 0-7.5-1.4-10-4.2-2.4-2.7-3.6-6.4-3.6-10.9 0-3.8.6-6.8 2-9.4 2.4-4.4 6.8-7 11.6-7 3.1 0 6.1.9 7.7 2.4zm18.7 22.6l2.2 3.5c-2.5 2.1-5.3 3.1-8.4 3.1-6.4 0-10.6-4.5-10.6-11.5 0-4.1.9-6.7 2.8-8.9 1.9-2.1 4.1-3 7.1-3 2.5 0 5 .9 6.4 2.3 2.1 2.1 3 5.1 3 9.8v1.4H200v.1c0 3.5 1.7 5.5 4.7 5.5q3 0 5.7-2.3zm-10.3-7.6h6.7v-.3c0-1.6-.1-2.5-.7-3.3-.5-.9-1.4-1.3-2.5-1.3-2.3 0-3.5 1.7-3.5 4.8zm32.2-7.3l-1.9 3.9c-2.2-1.1-3.8-1.6-5.5-1.6s-2.8.9-2.8 2.2c0 1.1.7 1.7 2.8 2.2l2.7.7c2.7.7 3.7 1.6 4.4 2.6q1.3 1.6 1.3 3.8c0 4.6-3.9 7.7-9.6 7.7q-4.1 0-9-2.5l2.1-4.3c1.8 1.1 4.9 2.5 7.4 2.5 1.6 0 3-1.1 3-2.5 0-1.5-1.1-2.3-3.5-2.8l-2.6-.4c-1.5-.3-3.3-1.3-4.1-2.3s-1.3-2.6-1.3-4c0-4.4 3.5-7.3 8.7-7.3 3.5 0 5.9 1.1 7.9 2.1zm16.5-1.6h7l-7.1 9.4 8.8 13h-6.9L243.1 73zm-12.1-8.6l5.9-1.4c.2 1.7.3 4.3.3 7.2v25.2h-5.8V60.4c0-1.9-.1-3.5-.4-5.8zM258.2 66c1.5-1 2.1-1.2 3.7-1.9 2.1-.8 4-1.3 6.1-1.3 3.7 0 6.3 1.4 7.2 3.9.3.9.4 1.6.4 4l-.2 7.5v.4c0 2.4.4 3.3 2.1 4.6l-3.1 3.6c-1.3-.6-2.6-1.6-3.1-2.7l-1.4 1.2c-1.1.7-2.6 1.2-4.5 1.2-4.9 0-7.7-2.6-7.7-7 0-5.2 3.7-7.7 10.8-7.7.4 0 .7 0 1.3.1v-1c0-2.4-.5-3.3-2.6-3.3-1.9 0-4.1.9-6.5 2.6zM271 52.5l2.4 4.3-9.3 4.1-1.7-3zm-1.3 23.3h-.3c-4 0-5.4.8-5.4 3.4 0 1.8 1.1 3 2.6 3 1 0 2.1-.6 3-1.6zm25.7-12l5.2-.9c.2.8.3 1.4.4 2.1 1-1.3 3.2-2.1 5.5-2.1q.5 0 1.1.1.6.1 1.2.2.5.2 1 .4.6.3 1.1.6c2.4 1.6 4.1 4.5 4.1 9.7 0 4.8-.7 7.3-3.1 9.7-1.5 1.6-3.5 2.5-6 2.5-1.7 0-3.4-.4-4.6-1.2v1.9 7l-5.6 1.4V69.4c0-2.9 0-3.7-.3-5.6zm6 16.4c.8.6 2 1.3 3.2 1.3 2.9 0 4-2 4-7.1 0-2.1-.1-3.8-.5-4.9-.5-1.2-1.4-1.9-2.8-1.9-1.5 0-2.9.6-3.9 1.7zm17.4-16l5.2-1.4c.6.9.9 1.9 1 3.2.8-1.1 2.2-2.3 3.3-2.8.5-.3 1.2-.4 1.9-.4.9 0 1.3.1 2.2.5l-1.6 5.1a3.53 3.53 0 0 0-1.7-.4c-1.4 0-2.5.6-3.6 1.9v15.8h-5.9V70.8c0-3.1-.3-5.3-.8-6.6zm25.1-11.9c2.7 0 5 2.3 5 5.1s-2.3 5.1-5.1 5.1-5-2.3-5-5.1 2.3-5.1 5.1-5.1zm-2.5 5.1c0 1.4 1.1 2.4 2.4 2.4q.5 0 .9-.1.5-.2.8-.6.3-.3.5-.8.2-.4.2-.9c0-1.4-1-2.4-2.3-2.4-1.4 0-2.5 1-2.5 2.4zm-6.7 6.5l5.8-1.1v14.3c0 2 .1 3.1.5 3.7.3.6 1.2 1 2 1 1.5 0 3.2-1 3.6-2.1V64l5.6-1.2v17.1c0 1.5.5 3 1.4 4l-4.2 2.4c-.7-.5-1.3-1.3-1.7-2.2-1.4 1.4-3.5 2.1-5.9 2.1-3.1 0-5.8-1.4-6.6-3.6-.3-1-.5-2.2-.5-4.4zm22.7.5l5.3-1.4c.4.6.5 1.1.7 2.2 1.6-1.5 3.5-2.2 5.5-2.2q2.8 0 4.5 1.8c.3.3.5.5.9 1.1 2.1-2.1 3.9-2.9 6.3-2.9 1.8 0 3.4.5 4.5 1.4 1.2 1 1.6 2.4 1.6 5.4v15.9H381V70.9c0-2.6-.3-3.1-1.8-3.1-1.1 0-2.6.7-3.9 1.8v16.1h-5.5V71.2c0-2.8-.4-3.5-2-3.5-1.1 0-2.6.6-3.9 1.7v16.3h-5.7V70.1c0-3.2-.2-4.6-.8-5.7zm32.2-.7l6-.7 3.9 13.1 1.1 4.6.7-3.6.9-3.1 3.4-10.6h6.1L403.6 86c-1.5 4.4-2.7 6.2-4.3 7.4-1.5 1.1-3.4 1.8-5.4 2.1l-2-3.9c1.3-.3 2.8-.8 3.6-1.5.7-.4 1.2-1 1.7-1.8.6-.9.7-1.3 1.3-2.6H397l-.9-2.6-1.2-3.7zm39.9 1.1l-2 3.9c-2.2-1.1-3.8-1.6-5.5-1.6s-2.8.9-2.8 2.2c0 1.1.7 1.7 2.8 2.3l2.7.7c2.8.7 3.7 1.5 4.5 2.5q1.2 1.6 1.2 3.8c0 4.6-3.9 7.8-9.6 7.8q-4.1-.1-9-2.6l2.1-4.3c1.8 1.1 4.9 2.5 7.4 2.5 1.7 0 3-1.1 3-2.5 0-1.5-1.1-2.3-3.5-2.7l-2.6-.5c-1.5-.3-3.3-1.3-4.1-2.3-.8-.9-1.3-2.6-1.3-4 0-4.4 3.5-7.3 8.7-7.3 3.6 0 5.9 1.1 8 2.1zM440 53.4c.2 1.2.3 2.6.3 5.8v17.4c0 3.8 0 4.3.4 5 .2.4.7.6 1.2.6.2 0 .3 0 .6-.1l1 3.5c-1 .4-2.2.6-3.5.6-2.5 0-4.5-1.2-5.2-3.1-.4-1.1-.5-1.8-.5-5V61.4l-.3-6.7zm14.6 9.5c3.2 0 5.7 1.1 7.6 3.4 1.8 2.1 2.6 4.5 2.6 8.2 0 3.8-.9 6.4-2.8 8.6-1.7 1.9-3.9 3.1-7.4 3.1-6 0-10-4.5-10-11.6 0-7 4-11.7 10-11.7zm.1 4.4c-1.4 0-2.5.8-3 2.2-.4 1.2-.6 2.8-.6 5 0 2.6.3 4.5.7 5.6.6 1.3 1.9 1.9 3 1.9 2.5 0 3.6-2.3 3.6-7.6 0-3-.4-5-1.2-6-.5-.7-1.4-1.1-2.5-1.1zm11.2-3.6l6-.7 3.2 10.1c.5 1.4 1.1 3.9 1.4 5.3.2-1.3.7-3.4 1.4-5.6l3-9.4h6.1l-8.2 22.3H474zm22.9 2.3c1.5-.9 2.1-1.1 3.6-1.8 2.2-.9 4.1-1.3 6.1-1.3 3.8 0 6.4 1.4 7.2 3.9.4.9.5 1.6.4 4l-.1 7.5v.4c0 2.4.4 3.3 2.1 4.6l-3.1 3.5c-1.4-.5-2.6-1.5-3.1-2.7l-1.4 1.2c-1.1.8-2.7 1.2-4.5 1.2-5 0-7.7-2.5-7.7-6.9 0-5.3 3.7-7.7 10.8-7.7h1.3V71c0-2.5-.5-3.3-2.6-3.3-1.9 0-4.1.9-6.5 2.5zm12.7-13.4l2.4 4.3-9.3 4.1-1.7-3.1zM500.3 76h-.3c-4 0-5.4.7-5.4 3.4 0 1.7 1.1 2.9 2.5 2.9 1.1 0 2.2-.5 3.1-1.5z"/></g><g fill="#00aee7"><path d="M170.3 114.3h16.6v4l-9.9 14.1h10.3l-1.4 4.1h-16.5v-3.6l10.5-14.5h-9.6zm38.4-9.2v23.2c0 5.5.4 7.3.8 8.2h-5.2c-.2-.4-.3-.7-.4-1.3q-2.1 1.9-5.1 1.9c-5.7 0-9.3-4.4-9.3-11.4s3.9-11.8 9.6-11.8c1.6 0 2.9.4 4 1.3-.1-.5-.2-2-.2-3.3v-7.7zM203 120q-1.7-1.4-3.2-1.4c-2.6 0-3.8 2.2-3.8 7.1 0 4.8 1 6.4 4.1 6.4 1.1 0 2.3-.7 2.9-1.4zm11.1-5l5.2-1.4c.5.9.8 1.9.9 3.1.8-1.1 2.2-2.3 3.3-2.8.5-.2 1.3-.3 1.9-.3.9 0 1.3 0 2.2.4l-1.6 5.2c-.6-.3-1-.4-1.7-.4-1.3 0-2.5.6-3.6 1.8v15.8h-5.8v-14.9c0-3-.4-5.3-.8-6.5zm14.4 1.7c1.4-.9 2.1-1.1 3.6-1.8 2.2-.9 4.1-1.3 6.1-1.3 3.8 0 6.4 1.4 7.2 3.9.3.9.5 1.6.4 4l-.1 7.5v.4c0 2.4.4 3.3 2.1 4.6l-3.1 3.6c-1.4-.6-2.6-1.6-3.2-2.7l-1.3 1.1c-1.1.8-2.7 1.3-4.5 1.3-5 0-7.7-2.6-7.7-7 0-5.3 3.6-7.7 10.8-7.7h1.3v-.9c0-2.5-.5-3.3-2.7-3.3-1.8 0-4 .9-6.4 2.5zm11.5 9.9h-.3c-4.1 0-5.5.8-5.5 3.4 0 1.8 1.1 3 2.6 3 1.1 0 2.2-.6 3.1-1.6zm8.3-12.2l6-.7 3.2 10.1q.2.6.4 1.3.2.7.4 1.3.2.7.3 1.4.2.7.4 1.3c.1-1.3.6-3.4 1.3-5.6l3-9.4h6.1l-8.1 22.3h-4.9zm32.3-.7c3.2 0 5.7 1.1 7.6 3.4 1.8 2.1 2.6 4.5 2.6 8.1 0 3.9-.9 6.5-2.8 8.7-1.7 1.9-3.9 3.1-7.4 3.1-6.1 0-10-4.6-10-11.6s4-11.7 10-11.7zm.1 4.3c-1.4 0-2.5.9-3 2.3-.4 1.2-.6 2.8-.6 5 0 2.6.2 4.5.7 5.6.5 1.2 1.9 1.8 3 1.8 2.5 0 3.6-2.2 3.6-7.5 0-3-.4-5-1.2-6-.5-.7-1.5-1.2-2.5-1.2zm25.3-3.9l-1.5 3.9h-3.8v11.4c0 2.8.6 3.6 2.6 3.6.5 0 1-.2 2.1-.5l.7 3.5c-1.7.7-3.2 1-4.8 1-2.9 0-5.3-1.3-6-3.3-.3-.9-.4-1.3-.4-3.4V118h-2.2v-3.8h2.2l.2-5.3 6-1.5q-.1.8-.2 1.7 0 .8-.1 1.6 0 .9 0 1.7-.1.9-.1 1.7zm2.4 1l5.2-1.5c.5.9.8 1.9.8 2.8l2.6-1.7c1.2-.6 2.7-.9 4-.9 2.5 0 4.7 1.3 5.4 3.2.3.8.4 1.8.4 3.2v16.3h-5.7V122c0-2.6-.5-3.3-2-3.3-1.2 0-2.7.8-4.1 2v15.8h-5.8v-16.2c0-1.9-.3-3.7-.8-5.2zm23.7-.6l5.9-.9v22.9h-5.9zm7.3-11.2l2.4 4.3-9.3 4.1-1.7-3zm18.3 11.3l5.2-1c.2.8.4 1.4.4 2.1 1-1.2 3.2-2.1 5.5-2.1q.6 0 1.2.1.6.1 1.1.3.6.2 1.1.4.5.3 1 .6c2.4 1.6 4.2 4.5 4.2 9.6 0 4.8-.8 7.3-3.1 9.8a8.22 8.22 0 0 1-6 2.5c-1.8 0-3.4-.4-4.7-1.2.1.5.1 1.8.1 1.8v7l-5.6 1.5v-25.8c0-2.9-.1-3.8-.4-5.6zm6.1 16.4c.7.6 2 1.3 3.2 1.3 2.9 0 4-2 4-7.1 0-2.1-.2-3.8-.6-4.9-.4-1.3-1.3-1.9-2.8-1.9-1.4 0-2.8.6-3.8 1.7zm26.7-17.3c3.2 0 5.6 1.1 7.6 3.3 1.7 2.1 2.5 4.6 2.5 8.2 0 3.8-.8 6.4-2.8 8.6-1.7 2-3.9 3.1-7.3 3.1-6.1 0-10.1-4.5-10.1-11.5 0-7.1 4-11.7 10.1-11.7zm.1 4.3c-1.4 0-2.6.9-3.1 2.3-.4 1.1-.6 2.7-.6 4.9 0 2.6.3 4.5.8 5.7s1.8 1.8 2.9 1.8c2.6 0 3.7-2.3 3.7-7.6 0-3-.4-4.9-1.2-5.9-.6-.8-1.5-1.2-2.5-1.2zm16.8-14.2c2 0 3.6 1.7 3.6 3.6q0 .8-.3 1.4-.2.7-.8 1.2-.5.5-1.1.8-.7.3-1.4.3c-2.1 0-3.6-1.6-3.6-3.6s1.6-3.7 3.6-3.7zm-3 11.2l5.8-1.4v22.2c0 4.3-.8 6-1.6 7-1.1 1.3-2.6 2.4-4.6 3.2l-2.4-3.2c.9-.7 1.7-1.7 2.1-2.5.5-1 .7-2.2.7-4.3zm11.3-.5l5.8-.9v22.8h-5.8zm3-10.6c2 0 3.5 1.7 3.5 3.7s-1.6 3.6-3.6 3.6c-1.9 0-3.6-1.6-3.6-3.6a3.76 3.76 0 0 1 3.7-3.7zm22.2 2.6l-7.1 5.3-7.2-5.3 1.7-2.9 5.5 3 5.3-3zm1.3 9.1l-1.9 4c-2.2-1.2-3.8-1.6-5.5-1.6s-2.8.8-2.8 2.1c0 1.2.7 1.8 2.8 2.3l2.7.7c2.7.7 3.6 1.5 4.4 2.5q1.3 1.6 1.3 3.8c0 4.7-3.9 7.8-9.6 7.8q-4.1 0-9-2.6l2.1-4.2c1.7 1 4.8 2.5 7.4 2.5 1.6 0 2.9-1.1 2.9-2.5 0-1.6-1-2.4-3.4-2.8l-2.6-.5c-1.5-.2-3.3-1.3-4.1-2.2-.8-1-1.3-2.6-1.3-4.1 0-4.3 3.5-7.2 8.7-7.2 3.5 0 5.9 1 7.9 2zm13.9-2.5l-1.9-1.9c1.5-.4 2.5-1.2 2.5-2.1 0-.4-.1-.7-.8-1.1-1-.6-1.4-1.3-1.4-2.5a3.01 3.01 0 0 1 3-3c2.1 0 3.5 1.8 3.5 4.2 0 3.1-1.9 5.7-4.9 6.4zm2.3 1l-1.5 3.9h-3.8v11.4c0 2.8.6 3.6 2.6 3.6.5 0 1-.2 2.1-.5l.7 3.5c-1.7.7-3.2 1-4.7 1-3 0-5.4-1.3-6.1-3.2-.3-1-.4-1.4-.4-3.5V118h-2.2v-3.8h2.2l.3-5.3 5.9-1.5c-.2 2.1-.4 4.5-.4 6.7zm12.6-.4c3.2 0 5.6 1.1 7.6 3.4 1.8 2.1 2.5 4.5 2.5 8.2 0 3.8-.8 6.4-2.8 8.6-1.7 1.9-3.9 3.1-7.3 3.1-6.1 0-10.1-4.5-10.1-11.6 0-7 4.1-11.7 10.1-11.7zm.1 4.3c-1.4 0-2.6.9-3.1 2.3a19.94 19.94 0 0 0-.6 5c0 2.6.3 4.5.8 5.6.5 1.2 1.8 1.9 2.9 1.9 2.6 0 3.7-2.3 3.7-7.6 0-3-.4-5-1.2-6-.6-.7-1.5-1.2-2.5-1.2zm11.1-3.5l6-.7 3.2 10.1q.3.6.4 1.3.2.7.4 1.3.2.7.4 1.4.1.6.3 1.3a42.19 42.19 0 0 1 1.3-5.7l3-9.3h6.2l-8.2 22.3h-4.8zm23.1.6l5.2-1.5c.5.9.8 1.9.8 2.8l2.6-1.7c1.2-.6 2.7-.9 4-.9 2.5 0 4.7 1.3 5.4 3.2.3.8.4 1.8.4 3.2v16.3h-5.8V122c0-2.6-.4-3.3-1.9-3.3-1.2 0-2.7.8-4.1 2v15.8h-5.8v-16.2c0-1.9-.3-3.7-.8-5.2zm23 1.7c1.5-.9 2.1-1.2 3.6-1.8 2.2-.9 4.1-1.3 6.2-1.3 3.7 0 6.3 1.4 7.2 3.9.3.9.4 1.6.4 4l-.2 7.5v.4c0 2.4.4 3.3 2.1 4.6l-3.1 3.5c-1.3-.5-2.6-1.5-3.1-2.7l-1.4 1.2c-1.1.8-2.6 1.2-4.5 1.2-4.9 0-7.7-2.5-7.7-7 0-5.2 3.7-7.6 10.8-7.6h1.3v-.9c0-2.5-.5-3.3-2.6-3.3-1.9 0-4.1.9-6.5 2.5zm11.5 9.9h-.3c-4 0-5.4.8-5.4 3.4 0 1.8 1.1 2.9 2.5 2.9 1.1 0 2.2-.5 3.1-1.5z"/></g></g></svg>