<svg version="1.2" xmlns="http://www.w3.org/2000/svg" viewBox="111.1 168.3 153.6 38.4"><style>.a{fill:#5aa6f2}.b{fill:#f5b689}</style><path class="a" d="m163.1 206.7v-6h49.3v6z"></path><path class="b" d="m215.4 206.7v-6h49.3v6z"></path><path class="a" d="m132.7 206.7l-0.5-0.3c0-0.1-5.3-3.7-10.5-8.7-3-2.9-5.5-5.7-7.3-8.4-2.2-3.4-3.3-6.6-3.3-9.4 0-6.4 5.2-11.6 11.5-11.6 2.4 0 4.7 0.8 6.7 2.1 1.4 1 2.6 2.3 3.4 3.8 0.8-1.5 2-2.8 3.4-3.8 2-1.3 4.3-2.1 6.7-2.1 6.3 0 11.5 5.2 11.5 11.6 0 2.8-1.1 5.9-3.4 9.4-1.8 2.6-4.2 5.5-7.3 8.4-5.1 5-10.4 8.6-10.4 8.7zm-10.1-36.8c-5.5 0-10 4.5-10 10 0 2.5 1.1 5.3 3.2 8.5 1.6 2.5 4 5.3 7 8.1 4.2 4.1 8.5 7.2 9.9 8.2 1.3-1 5.6-4.1 9.8-8.2 3-2.9 5.3-5.6 7-8.2 2.1-3.1 3.2-5.9 3.2-8.4 0-5.5-4.5-10-10-10-4.1 0-7.8 2.6-9.3 6.5l-0.7 1.9-0.8-1.9c-1.5-3.9-5.2-6.5-9.3-6.5z"></path><path class="b" d="m130.3 190.4q0.3-0.3 0.5-0.6c0.6-1.2 2.1-4.4 0.2-5.2-2.5-1.1-7.8-1.2-6.9 6.4 1 7.6 5.8 7.2 7.2 6.5 1.4-0.7 1.9-3.7-0.1-5-1.5-1-1.1-1.8-0.9-2.1z"></path><path class="b" d="m132.6 182.5q0 0.3-0.2 0.6-0.1 0.3-0.4 0.5-0.3 0.3-0.6 0.3-0.3 0.1-0.7 0.1-0.3 0-0.6-0.2-0.3-0.2-0.5-0.4-0.2-0.3-0.3-0.6-0.1-0.3-0.1-0.7 0-0.3 0.2-0.6 0.2-0.3 0.4-0.5 0.3-0.3 0.6-0.4 0.4 0 0.7 0 0.3 0 0.6 0.2 0.3 0.2 0.6 0.4 0.2 0.3 0.3 0.6 0.1 0.3 0 0.7z"></path><path class="b" d="m128.9 182.8q-0.1 0.2-0.2 0.4-0.1 0.1-0.2 0.3-0.2 0.1-0.4 0.1-0.1 0.1-0.3 0.1-0.2 0-0.4-0.1-0.2-0.1-0.3-0.3-0.1-0.1-0.2-0.3-0.1-0.2 0-0.4 0-0.2 0.1-0.4 0.1-0.2 0.2-0.3 0.2-0.1 0.4-0.2 0.2 0 0.4 0 0.2 0 0.3 0.1 0.2 0.1 0.3 0.3 0.2 0.1 0.2 0.3 0.1 0.2 0.1 0.4z"></path><path class="b" d="m126.7 183.7q0 0.3-0.3 0.6-0.3 0.2-0.6 0.2-0.4-0.1-0.6-0.4-0.3-0.2-0.2-0.6 0-0.4 0.3-0.6 0.3-0.3 0.7-0.2 0.3 0 0.6 0.3 0.2 0.3 0.1 0.7z"></path><path class="b" d="m125.1 185q0 0.3-0.3 0.6-0.3 0.2-0.6 0.1-0.4 0-0.6-0.3-0.2-0.3-0.2-0.6 0.1-0.3 0.3-0.6 0.3-0.2 0.7-0.2 0.3 0.1 0.5 0.4 0.3 0.2 0.2 0.6z"></path><path class="b" d="m124.1 186.7q-0.1 0.3-0.3 0.5-0.2 0.1-0.5 0.1-0.3 0-0.5-0.3-0.2-0.2-0.1-0.5 0-0.3 0.2-0.5 0.3-0.1 0.6-0.1 0.2 0 0.4 0.3 0.2 0.2 0.2 0.5z"></path><path class="a" d="m136 185.7q-0.2-0.3-0.3-0.7c-0.4-1.3-1.2-4.7 0.9-5.1 2.6-0.5 7.8 0.5 5.3 7.7-2.6 7.2-7.2 5.9-8.4 4.9-1.2-1-1.1-4.1 1.1-4.9 1.7-0.7 1.5-1.5 1.4-1.9z"></path><path class="a" d="m138.8 177.9q0 0.3-0.2 0.6-0.1 0.3-0.4 0.5-0.3 0.3-0.6 0.4-0.3 0-0.6 0-0.4 0-0.7-0.2-0.3-0.2-0.5-0.4-0.2-0.3-0.3-0.6-0.1-0.3-0.1-0.7 0.1-0.3 0.2-0.6 0.2-0.3 0.5-0.5 0.2-0.3 0.6-0.3 0.3-0.1 0.6-0.1 0.4 0 0.7 0.2 0.3 0.2 0.5 0.4 0.2 0.3 0.3 0.6 0.1 0.3 0 0.7z"></path><path class="a" d="m141 178.8q0 0.2-0.1 0.4-0.1 0.2-0.2 0.3-0.2 0.1-0.4 0.2-0.2 0.1-0.4 0-0.2 0-0.4-0.1-0.1-0.1-0.3-0.2-0.1-0.2-0.1-0.4-0.1-0.2-0.1-0.4 0.1-0.2 0.1-0.3 0.1-0.2 0.3-0.3 0.2-0.2 0.3-0.2 0.2-0.1 0.4-0.1 0.2 0.1 0.4 0.2 0.2 0.1 0.3 0.2 0.1 0.2 0.2 0.4 0 0.1 0 0.3z"></path><path class="a" d="m142.7 180.1q0 0.4-0.3 0.6-0.3 0.3-0.7 0.2-0.4 0-0.6-0.3-0.2-0.3-0.2-0.7 0-0.3 0.3-0.6 0.3-0.2 0.7-0.1 0.4 0 0.6 0.3 0.2 0.3 0.2 0.6z"></path><path class="a" d="m143.9 181.8q0 0.3-0.3 0.5-0.3 0.2-0.6 0.2-0.4 0-0.6-0.3-0.2-0.3-0.2-0.6 0.1-0.4 0.3-0.6 0.3-0.2 0.7-0.2 0.3 0.1 0.5 0.3 0.2 0.3 0.2 0.7z"></path><path class="a" d="m144.3 183.6q-0.1 0.3-0.3 0.5-0.2 0.2-0.5 0.1-0.3 0-0.5-0.2-0.2-0.3-0.1-0.5 0-0.3 0.2-0.5 0.3-0.2 0.5-0.2 0.3 0.1 0.5 0.3 0.2 0.2 0.2 0.5z"></path><path class="a" d="m165 191q-0.4 0-0.7-0.3-0.2-0.2-0.2-0.7v-7.9q0-0.4 0.2-0.7 0.3-0.2 0.8-0.2 0.4 0 0.6 0.1 0.3 0.2 0.5 0.6l3.1 5.7h-0.5l3.2-5.7q0.2-0.4 0.4-0.6 0.3-0.1 0.6-0.1 0.5 0 0.8 0.2 0.2 0.3 0.2 0.7v7.9q0 0.5-0.2 0.7-0.3 0.3-0.7 0.3-0.5 0-0.8-0.3-0.2-0.2-0.2-0.7v-5.5h0.3l-2.5 4.5q-0.2 0.3-0.4 0.4-0.2 0.2-0.5 0.2-0.3 0-0.5-0.2-0.1-0.1-0.3-0.4l-2.5-4.5h0.3v5.5q0 0.5-0.3 0.7-0.2 0.3-0.7 0.3z"></path><path class="a" d="m180.1 191q-1.1 0-1.8-0.2-0.8-0.3-1.4-0.8-0.5-0.5-0.7-1.3-0.3-0.8-0.3-1.8v-4.7q0-0.5 0.3-0.8 0.2-0.2 0.7-0.2 0.6 0 0.8 0.2 0.3 0.3 0.3 0.8v4.7q0 1.1 0.5 1.7 0.6 0.6 1.6 0.6 1 0 1.5-0.6 0.5-0.6 0.5-1.7v-4.7q0-0.5 0.3-0.8 0.3-0.2 0.8-0.2 0.5 0 0.7 0.2 0.3 0.3 0.3 0.8v4.7q0 1.3-0.5 2.3-0.4 0.9-1.4 1.4-0.9 0.4-2.2 0.4z"></path><path class="a" d="m187.2 190.9q-0.6 0-0.9-0.3-0.2-0.3-0.2-0.8v-7.4q0-0.5 0.2-0.8 0.3-0.3 0.9-0.3h2.6q2.5 0 3.8 1.2 1.3 1.3 1.3 3.6 0 1.1-0.3 2-0.3 0.9-1 1.5-0.7 0.6-1.6 1-1 0.3-2.2 0.3zm1-1.8h1.5q0.8 0 1.4-0.1 0.6-0.2 0.9-0.6 0.4-0.4 0.6-1 0.2-0.5 0.2-1.3 0-1.6-0.8-2.3-0.7-0.8-2.3-0.8h-1.5z"></path><path class="a" d="m197.5 191q-0.6 0-0.8-0.3-0.3-0.2-0.3-0.7v-4.9q0-0.5 0.3-0.7 0.2-0.3 0.7-0.3 0.5 0 0.8 0.3 0.2 0.2 0.2 0.7v0.7h-0.1q0.1-0.8 0.7-1.2 0.6-0.5 1.4-0.5 0.4-0.1 0.6 0.1 0.1 0.2 0.2 0.7 0 0.4-0.2 0.6-0.2 0.3-0.7 0.3l-0.3 0.1q-0.8 0-1.1 0.4-0.4 0.4-0.4 1.1v2.6q0 0.5-0.3 0.7-0.2 0.3-0.7 0.3z"></path><path class="a" d="m203 190.9q-0.6 0-0.9-0.3-0.3-0.3-0.3-0.8 0-0.5 0.3-0.8 0.3-0.4 0.9-0.4 0.5 0 0.8 0.4 0.3 0.3 0.3 0.8 0 0.5-0.3 0.8-0.3 0.3-0.8 0.3z"></path><path class="a" d=""></path><path class="a" d="m209.3 191q-0.4 0-0.7-0.3-0.3-0.2-0.3-0.6 0-0.3 0.2-0.6 0.2-0.2 0.6-0.2l0.3-0.1q0.6 0 0.9-0.3 0.2-0.2 0.2-0.8v-5.9q0-0.5 0.3-0.8 0.3-0.2 0.8-0.2 0.5 0 0.8 0.2 0.2 0.3 0.2 0.8v5.9q0 0.9-0.3 1.5-0.3 0.6-0.9 0.9-0.7 0.4-1.6 0.5z"></path><path class="a" d="m216.6 191q-0.7 0-1.3-0.3-0.6-0.2-0.9-0.7-0.3-0.5-0.3-1.1 0-0.8 0.4-1.2 0.3-0.4 1.2-0.6 0.9-0.2 2.3-0.2h0.7v1.1h-0.7q-0.7 0-1.1 0-0.5 0.1-0.6 0.3-0.2 0.2-0.2 0.5 0 0.4 0.2 0.6 0.3 0.3 0.8 0.3 0.4 0 0.7-0.2 0.3-0.2 0.5-0.5 0.2-0.4 0.2-0.8v-1.5q0-0.6-0.3-0.9-0.3-0.2-0.9-0.2-0.4 0-0.8 0.1-0.5 0-1 0.3-0.3 0.1-0.5 0-0.2-0.1-0.4-0.3-0.1-0.2-0.1-0.4 0-0.2 0.2-0.5 0.1-0.2 0.4-0.3 0.6-0.2 1.2-0.3 0.6-0.1 1-0.1 1.1 0 1.8 0.3 0.6 0.3 1 0.9 0.3 0.6 0.3 1.6v3.1q0 0.5-0.2 0.7-0.3 0.3-0.7 0.3-0.5 0-0.7-0.3-0.3-0.2-0.3-0.7v-0.6l0.1 0.1q-0.1 0.5-0.3 0.8-0.3 0.4-0.7 0.5-0.4 0.2-1 0.2z"></path><path class="a" d="m223 191q-0.5 0-0.8-0.3-0.2-0.2-0.2-0.7v-4.9q0-0.5 0.2-0.7 0.3-0.3 0.8-0.3 0.5 0 0.7 0.3 0.3 0.2 0.3 0.7v0.8l-0.2-0.5q0.3-0.6 1-1 0.6-0.3 1.4-0.3 0.8 0 1.3 0.3 0.5 0.3 0.8 0.9 0.2 0.6 0.2 1.6v3.1q0 0.5-0.3 0.7-0.2 0.3-0.7 0.3-0.5 0-0.8-0.3-0.2-0.2-0.2-0.7v-3q0-0.7-0.3-1-0.2-0.3-0.8-0.3-0.6 0-1 0.4-0.4 0.4-0.4 1v2.9q0 1-1 1z"></path><path class="a" d="m232.5 191q-0.8 0-1.4-0.3-0.6-0.3-0.8-0.9-0.3-0.7-0.3-1.6v-3.1q0-0.5 0.3-0.8 0.2-0.2 0.7-0.2 0.5 0 0.8 0.2 0.3 0.3 0.3 0.8v3.2q0 0.5 0.2 0.8 0.3 0.3 0.8 0.3 0.6 0 0.9-0.4 0.4-0.4 0.4-1.1v-2.8q0-0.5 0.3-0.8 0.3-0.2 0.7-0.2 0.5 0 0.8 0.2 0.3 0.3 0.3 0.8v4.9q0 1-1 1-0.5 0-0.8-0.3-0.2-0.2-0.2-0.7v-1l0.2 0.6q-0.3 0.7-0.9 1-0.5 0.4-1.3 0.4z"></path><path class="a" d="m240.5 191q-1.2 0-1.8-0.6-0.6-0.7-0.6-2.1v-6.1q0-0.5 0.2-0.8 0.3-0.2 0.8-0.2 0.5 0 0.8 0.2 0.2 0.3 0.2 0.8v6.1q0 0.5 0.3 0.8 0.2 0.3 0.6 0.3 0.1 0 0.2-0.1 0.1 0 0.2 0 0.2 0 0.3 0.2 0.1 0.1 0.1 0.6 0 0.4-0.2 0.6-0.1 0.2-0.5 0.3-0.1 0-0.3 0-0.2 0-0.3 0z"></path><path class="a" d="m245.8 191q-1.1 0-1.9-0.4-0.8-0.4-1.2-1.2-0.4-0.8-0.4-1.9 0-0.8 0.2-1.4 0.3-0.7 0.7-1.1 0.5-0.5 1.1-0.7 0.7-0.2 1.5-0.2 1.1 0 1.9 0.4 0.8 0.4 1.2 1.2 0.4 0.8 0.4 1.8 0 0.8-0.2 1.5-0.3 0.6-0.7 1.1-0.5 0.4-1.1 0.7-0.7 0.2-1.5 0.2zm0-1.5q0.4 0 0.8-0.2 0.3-0.2 0.5-0.7 0.2-0.4 0.2-1.1 0-1-0.4-1.4-0.4-0.5-1.1-0.5-0.4 0-0.8 0.2-0.3 0.2-0.5 0.6-0.2 0.5-0.2 1.1 0 1 0.4 1.5 0.4 0.5 1.1 0.5z"></path><path class="a" d="m253.4 191q-0.4 0-0.7-0.2-0.3-0.2-0.4-0.6l-2.1-4.8q-0.1-0.3-0.1-0.6 0-0.3 0.3-0.5 0.2-0.2 0.7-0.2 0.4 0 0.6 0.2 0.2 0.1 0.4 0.6l1.6 4.1h-0.4l1.6-4.1q0.2-0.5 0.5-0.6 0.2-0.2 0.6-0.2 0.4 0 0.6 0.2 0.2 0.2 0.2 0.5 0.1 0.3-0.1 0.6l-2.1 4.8q-0.2 0.4-0.5 0.6-0.3 0.2-0.7 0.2z"></path><path class="a" d="m260.1 191q-0.7 0-1.3-0.3-0.6-0.2-0.9-0.7-0.3-0.5-0.3-1.1 0-0.8 0.3-1.2 0.4-0.4 1.3-0.6 0.8-0.2 2.2-0.2h0.8v1.1h-0.7q-0.7 0-1.2 0-0.4 0.1-0.6 0.3-0.2 0.2-0.2 0.5 0 0.4 0.3 0.6 0.3 0.3 0.8 0.3 0.4 0 0.7-0.2 0.3-0.2 0.5-0.5 0.1-0.4 0.1-0.8v-1.5q0-0.6-0.2-0.9-0.3-0.2-1-0.2-0.3 0-0.8 0.1-0.4 0-0.9 0.3-0.3 0.1-0.5 0-0.3-0.1-0.4-0.3-0.1-0.2-0.1-0.4 0-0.2 0.1-0.5 0.2-0.2 0.5-0.3 0.6-0.2 1.2-0.3 0.5-0.1 1-0.1 1.1 0 1.7 0.3 0.7 0.3 1.1 0.9 0.3 0.6 0.3 1.6v3.1q0 0.5-0.3 0.7-0.2 0.3-0.7 0.3-0.4 0-0.7-0.3-0.2-0.2-0.2-0.7v-0.6l0.1 0.1q-0.1 0.5-0.4 0.8-0.2 0.4-0.6 0.5-0.5 0.2-1 0.2zm1.6-7.8q-0.2 0.3-0.4 0.3-0.2 0-0.5-0.1-0.2-0.1-0.2-0.3-0.1-0.2 0-0.5l1-1.9q0.1-0.3 0.3-0.4 0.3-0.1 0.5 0 0.3 0.1 0.5 0.2 0.1 0.2 0.2 0.5 0 0.2-0.2 0.5z"></path></svg>