<svg version="1.2" xmlns="http://www.w3.org/2000/svg" viewBox="0 0 375 375" width="375" height="375"><style>.a{fill:#f69}.b{fill:#f8f0f5}.c{fill:#ffb3d1}.d{fill:#e06699}.e{fill:#ff80b3}</style><path class="a" d="m73.6 302.8q1.9 0 3.5 1.1 1.7 1.1 2.7 3 1 1.8 1 4.1 0 2.3-1 4.2-1 1.8-2.7 3-1.6 1.1-3.5 1.1h-6.8l0.4-0.7v7.6q0 0.9-0.6 1.6-0.6 0.6-1.5 0.6-0.9 0-1.5-0.6-0.6-0.7-0.6-1.6v-21.1q0-1 0.6-1.6 0.7-0.7 1.6-0.7zm0 12.3q0.7 0 1.4-0.6 0.6-0.6 1.1-1.5 0.4-0.9 0.4-2 0-1-0.4-1.9-0.5-0.9-1.1-1.5-0.7-0.6-1.4-0.6h-6.8l0.5-0.6v9.3l-0.4-0.6z"/><path class="a" d="m93.9 328.8q-3.1 0-5.4-1.3-2.3-1.3-3.5-3.6-1.2-2.2-1.2-5 0-3.3 1.3-5.6 1.3-2.3 3.5-3.6 2.1-1.2 4.5-1.2 1.9 0 3.6 0.8 1.6 0.7 2.9 2.1 1.3 1.3 2 3 0.8 1.8 0.8 3.8 0 0.9-0.7 1.4-0.7 0.5-1.5 0.5h-14l-1.1-3.6h13.4l-0.8 0.7v-1q-0.1-1-0.7-1.9-0.7-0.8-1.7-1.3-1-0.5-2.2-0.5-1 0-2 0.3-0.9 0.3-1.6 1-0.7 0.7-1.1 1.9-0.4 1.1-0.4 2.9 0 2 0.8 3.4 0.8 1.3 2.1 2 1.3 0.8 2.8 0.8 1.3 0 2.1-0.3 0.8-0.2 1.3-0.5 0.5-0.3 0.9-0.5 0.7-0.4 1.3-0.4 0.8 0 1.3 0.6 0.5 0.5 0.5 1.3 0 1-1 1.8-1 0.8-2.7 1.4-1.7 0.6-3.5 0.6z"/><path class="a" d="m122.2 301.4q1 0 1.6 0.6 0.6 0.6 0.6 1.6v22.6q0 0.9-0.6 1.6-0.6 0.6-1.6 0.6-0.9 0-1.5-0.6-0.7-0.7-0.7-1.6v-1.8l0.8 0.3q0 0.5-0.5 1.2-0.5 0.6-1.4 1.3-0.8 0.7-2 1.1-1.2 0.5-2.6 0.5-2.5 0-4.6-1.3-2-1.3-3.2-3.6-1.2-2.3-1.2-5.3 0-2.9 1.2-5.2 1.2-2.3 3.2-3.6 2-1.3 4.5-1.3 1.5 0 2.8 0.5 1.4 0.4 2.3 1.2 1 0.7 1.5 1.5 0.6 0.7 0.6 1.2l-1.4 0.5v-9.8q0-1 0.7-1.6 0.6-0.6 1.5-0.6zm-7.3 23.4q1.6 0 2.8-0.9 1.2-0.8 1.8-2.1 0.7-1.4 0.7-3.2 0-1.7-0.7-3.1-0.6-1.4-1.8-2.2-1.2-0.8-2.8-0.8-1.6 0-2.8 0.8-1.2 0.8-1.9 2.2-0.7 1.4-0.7 3.1 0 1.8 0.7 3.2 0.7 1.3 1.9 2.1 1.2 0.9 2.8 0.9z"/><path class="a" d="m133.3 326.2q0 0.9-0.6 1.6-0.6 0.6-1.6 0.6-0.9 0-1.6-0.6-0.6-0.7-0.6-1.6v-15.1q0-1 0.6-1.6 0.7-0.6 1.6-0.6 1 0 1.6 0.6 0.6 0.6 0.6 1.6zm-2.2-19.7q-1.3 0-1.8-0.4-0.5-0.4-0.5-1.4v-0.7q0-1.1 0.6-1.5 0.5-0.4 1.7-0.4 1.3 0 1.8 0.4 0.5 0.4 0.5 1.5v0.7q0 1-0.5 1.4-0.6 0.4-1.8 0.4z"/><path class="a" d="m153.8 308.5q1 0 1.6 0.6 0.6 0.6 0.6 1.6v15.5q0 0.9-0.6 1.6-0.6 0.6-1.6 0.6-0.9 0-1.6-0.6-0.6-0.7-0.6-1.6v-1.8l0.8 0.3q0 0.5-0.5 1.2-0.5 0.6-1.4 1.3-0.9 0.7-2.1 1.1-1.1 0.5-2.5 0.5-2.5 0-4.6-1.3-2-1.3-3.2-3.6-1.2-2.3-1.2-5.3 0-2.9 1.2-5.2 1.2-2.3 3.2-3.6 2-1.3 4.4-1.3 1.6 0 2.9 0.5 1.3 0.4 2.3 1.2 1 0.7 1.5 1.5 0.5 0.7 0.5 1.2l-1.3 0.5v-2.7q0-0.9 0.6-1.6 0.7-0.6 1.6-0.6zm-7.4 16.3q1.6 0 2.8-0.9 1.2-0.8 1.9-2.1 0.7-1.4 0.7-3.2 0-1.7-0.7-3.1-0.7-1.4-1.9-2.2-1.2-0.8-2.8-0.8-1.5 0-2.8 0.8-1.2 0.8-1.8 2.2-0.7 1.4-0.7 3.1 0 1.8 0.7 3.2 0.6 1.3 1.8 2.1 1.3 0.9 2.8 0.9z"/><path class="a" d="m161 309.2h8.6q0.9 0 1.5 0.6 0.6 0.6 0.6 1.5 0 0.8-0.6 1.4-0.6 0.5-1.5 0.5h-8.6q-0.9 0-1.5-0.5-0.6-0.6-0.6-1.5 0-0.8 0.6-1.4 0.6-0.6 1.5-0.6zm3.9-4.5q0.9 0 1.5 0.6 0.6 0.6 0.6 1.6v16.2q0 0.6 0.2 0.9 0.2 0.3 0.6 0.5 0.3 0.1 0.7 0.1 0.5 0 0.8-0.2 0.4-0.1 0.9-0.1 0.5 0 0.9 0.5 0.4 0.4 0.4 1.3 0 1-1.1 1.6-1.1 0.7-2.4 0.7-0.8 0-1.7-0.1-0.9-0.2-1.7-0.6-0.9-0.5-1.4-1.6-0.6-1-0.6-2.8v-16.4q0-1 0.7-1.6 0.6-0.6 1.6-0.6z"/><path class="a" d="m177.9 328.4q-1 0-1.6-0.6-0.6-0.7-0.6-1.6v-15.1q0-1 0.6-1.6 0.6-0.6 1.6-0.6 0.9 0 1.6 0.6 0.6 0.6 0.6 1.6v3.4l-0.3-2.4q0.4-0.9 1.1-1.6 0.6-0.7 1.4-1.1 0.8-0.5 1.7-0.7 0.9-0.2 1.8-0.2 1.1 0 1.9 0.6 0.7 0.6 0.7 1.5 0 1.2-0.6 1.7-0.6 0.5-1.3 0.5-0.7 0-1.3-0.2-0.6-0.3-1.3-0.3-0.6 0-1.3 0.3-0.7 0.3-1.3 1-0.5 0.7-0.9 1.6-0.3 1-0.3 2.3v8.7q0 0.9-0.6 1.6-0.7 0.6-1.6 0.6z"/><path class="a" d=""/><path class="a" d="m219.4 302.8q0.8 0 1.6 0.6 0.8 0.6 0.8 1.6 0 0.7-0.5 1.4l-14 17.9-0.4-0.1h12.2q0.9 0 1.6 0.6 0.6 0.5 0.6 1.5 0 0.9-0.6 1.5-0.7 0.6-1.6 0.6h-16.1q-0.9 0-1.6-0.7-0.7-0.6-0.7-1.5 0-0.6 0.5-1.3l14-18.1 0.4 0.2h-11.1q-1 0-1.6-0.6-0.6-0.5-0.6-1.5 0-0.9 0.6-1.5 0.6-0.6 1.6-0.6z"/><path class="a" d="m235.6 308.5q2.5 0 4.6 1.3 2 1.3 3.2 3.5 1.2 2.3 1.2 5.3 0 3-1.2 5.3-1.2 2.3-3.2 3.6-2 1.3-4.5 1.3-1.4 0-2.7-0.5-1.3-0.5-2.3-1.2-0.9-0.7-1.5-1.5-0.5-0.7-0.5-1.3l1.1-0.4v2.6q0 1-0.6 1.6-0.6 0.7-1.6 0.7-0.9 0-1.5-0.7-0.6-0.6-0.6-1.6v-22.9q0-1 0.6-1.6 0.6-0.6 1.5-0.6 1 0 1.6 0.6 0.6 0.6 0.6 1.6v9.3l-0.6-0.4q0-0.4 0.5-1.1 0.5-0.7 1.4-1.4 0.9-0.6 2-1.1 1.2-0.4 2.5-0.4zm-0.6 4q-1.6 0-2.8 0.8-1.2 0.8-1.9 2.2-0.6 1.4-0.6 3.1 0 1.7 0.6 3.1 0.7 1.4 1.9 2.2 1.2 0.9 2.8 0.9 1.6 0 2.8-0.9 1.2-0.8 1.9-2.2 0.7-1.4 0.7-3.1 0-1.7-0.7-3.1-0.7-1.4-1.9-2.2-1.2-0.8-2.8-0.8z"/><path class="a" d="m252.5 326.2q0 0.9-0.6 1.6-0.6 0.6-1.6 0.6-0.9 0-1.5-0.6-0.7-0.7-0.7-1.6v-15.1q0-1 0.7-1.6 0.6-0.6 1.5-0.6 1 0 1.6 0.6 0.6 0.6 0.6 1.6zm-2.2-19.7q-1.2 0-1.8-0.4-0.5-0.4-0.5-1.4v-0.7q0-1.1 0.6-1.5 0.6-0.4 1.7-0.4 1.3 0 1.8 0.4 0.5 0.4 0.5 1.5v0.7q0 1-0.5 1.4-0.6 0.4-1.8 0.4z"/><path class="a" d="m259.2 328.4q-0.9 0-1.6-0.6-0.6-0.7-0.6-1.6v-15.1q0-1 0.6-1.6 0.7-0.6 1.6-0.6 1 0 1.6 0.6 0.6 0.6 0.6 1.6v3.4l-0.2-2.4q0.4-0.9 1-1.6 0.6-0.7 1.4-1.1 0.8-0.5 1.8-0.7 0.9-0.2 1.8-0.2 1.1 0 1.8 0.6 0.8 0.6 0.8 1.5 0 1.2-0.6 1.7-0.7 0.5-1.4 0.5-0.7 0-1.3-0.2-0.5-0.3-1.3-0.3-0.6 0-1.3 0.3-0.7 0.3-1.2 1-0.6 0.7-0.9 1.6-0.4 1-0.4 2.3v8.7q0 0.9-0.6 1.6-0.6 0.6-1.6 0.6z"/><path class="a" d="m291.8 318.6q0 3-1.3 5.3-1.3 2.3-3.6 3.6-2.2 1.3-5 1.3-2.8 0-5-1.3-2.3-1.3-3.6-3.6-1.3-2.3-1.3-5.3 0-2.9 1.3-5.2 1.3-2.3 3.6-3.6 2.2-1.3 5-1.3 2.8 0 5 1.3 2.3 1.3 3.6 3.6 1.3 2.3 1.3 5.2zm-4.3 0q0-1.8-0.8-3.2-0.7-1.4-2-2.1-1.3-0.8-2.8-0.8-1.5 0-2.8 0.8-1.2 0.7-2 2.1-0.7 1.4-0.7 3.2 0 1.9 0.7 3.2 0.8 1.4 2 2.2 1.3 0.8 2.8 0.8 1.5 0 2.8-0.8 1.3-0.8 2-2.2 0.8-1.3 0.8-3.2z"/><path class="a" d="m306 308.5q2.6 0 4 1.1 1.3 1.2 1.8 3 0.5 1.9 0.5 4.2v9.4q0 0.9-0.6 1.6-0.6 0.6-1.5 0.6-1 0-1.6-0.6-0.6-0.7-0.6-1.6v-9.4q0-1.2-0.3-2.2-0.3-0.9-1.1-1.5-0.8-0.6-2.2-0.6-1.4 0-2.4 0.6-0.9 0.6-1.4 1.5-0.5 1-0.5 2.2v9.4q0 0.9-0.7 1.6-0.6 0.6-1.5 0.6-1 0-1.6-0.6-0.6-0.7-0.6-1.6v-22.6q0-1 0.6-1.6 0.6-0.6 1.6-0.6 0.9 0 1.5 0.6 0.7 0.6 0.7 1.6v9.1l-0.6-0.2q0.3-0.6 0.9-1.3 0.6-0.7 1.5-1.3 0.8-0.6 1.8-1 1-0.4 2.3-0.4z"/><path class="b" d="m268.9 177.1h-0.1c-6.4-5.7-13.8-8.8-21-10.4q3.2-5.4 5.1-11c4.9-14.1 3.3-29.8-4.2-42-4.1-6.7-9.7-11.9-16.2-15.1-7.1-3.6-15.2-4.8-23.5-3.6-14.3 2.1-27.7 11.5-35.9 25.2-2.6 4.5-4.6 9.2-6.2 13.9q-1.5-1.1-3.1-2c-13.4-7.6-30.5-6.8-46.8 2-7 3.8-12.7 8.6-17 14.2-5.2 6.8-8 15-8.2 23.9-0.3 15.1 6.5 30.6 17.7 40.3 5.4 4.7 11.8 7.9 18.6 9.3q-0.4 0.8-0.8 1.6c-2.9 6.1-4.2 12.5-3.8 18.6 0.5 6.2 2.6 12.3 6.2 17.6 6.7 10.1 17.9 17.3 29.9 19.3 7.2 1.3 14.2 0.4 20.7-2.4 5.3-2.3 10.3-6 14.4-10.7q2.4-2.6 4.2-5.4 2.4 3 5.3 5.8c7 6.9 15.6 11.6 24.7 13.8q5.8 1.3 11.5 1.3 1.9 0 3.8-0.2c14-1.1 18.3-9.9 19.4-13.7 1.8-5.4 0.7-11.4-2.8-15.8-1.6-2-3.5-3.5-5.7-4.6 5.1-2 9.4-4.5 13.2-7.7 8.4-7.2 13.6-17.7 14.3-28.9 0.8-12.4-4.3-24.9-13.7-33.3zm-36.5 74.3q-0.4 0.4-0.7 0.7-0.7-0.2-1.4-0.6 1 0 2.1-0.1z"/><path class="c" d="m259.7 195.1c-10.8-9.5-26.9-9.2-41.3-8.3 11.3-8.6 21-20.5 23.3-34.6 2.2-14-4.9-30.1-18.3-34.8-14.1-4.9-30.1 4.1-37.9 16.8-7.9 12.7-9.6 28.2-11 43.1-3.3-11.2-9.7-22.5-20.5-26.9-9.5-3.8-20.5-1.6-29.5 3.1-7.3 3.8-13.9 9.4-17 16.9-3 7.4-2.3 15.8 0.3 23.3 3.6 10.3 11.4 19.8 22.1 22.2 8.8 2.1 18.3-0.9 26.9 1.7-9.6 8.1-20 18-19.6 30.6 0.3 10.2 8.5 19 17.9 23 4 1.6 8.2 2.6 12.4 2.3 9.7-0.6 17.8-8 22.2-16.7 3.4-6.8 4.8-14.4 5.9-22 10.9 9.6 27.3 12.1 42 10.2 7.4-0.9 14.9-3 20.7-7.5 6.4-5 10.4-12.8 10.6-20.9 0.3-8-3.2-16.1-9.2-21.5z"/><path class="d" d="m261 193.8c-9-7.9-21.3-9.4-32.8-9.3-3.3 0.1-6.6 0.3-9.8 0.5q0.4 1.7 0.9 3.4c9.7-7.5 18.3-17 22.4-28.8 3.6-10.5 2.8-22.3-3.1-31.9-2.8-4.4-6.7-8.3-11.4-10.7-5.1-2.6-10.8-3.3-16.5-2.5-11.4 1.7-21.6 9.8-27.3 19.6-6.9 11.6-8.9 25.1-10.3 38.3q-0.2 2.4-0.5 4.9 1.8-0.3 3.7-0.5c-3.1-10.4-8.7-21-18.4-26.5-11-6.3-24.6-3.7-35.3 2.1-5 2.7-9.6 6.3-13.2 10.9-3.7 4.9-5.6 10.8-5.7 16.9-0.3 11.4 4.9 23.6 13.6 31.1 4.2 3.7 9.3 6.2 14.9 6.9 6.5 0.9 13-0.3 19.6 0.3q2.3 0.2 4.5 0.9-0.4-1.5-0.8-3.1c-6.7 5.7-13.7 11.9-17.5 20-1.9 3.9-2.9 8.3-2.6 12.7 0.3 4.2 1.8 8.3 4.1 11.8 5 7.4 13.3 12.8 22.1 14.2 4.8 0.8 9.5 0.3 14-1.6 3.9-1.7 7.4-4.5 10.2-7.7 7.5-8.4 10.1-19.5 11.6-30.4q-1.6 0.4-3.2 0.8c11.7 10.2 28.4 12.7 43.4 10.8 8.2-1.1 16.5-3.4 23-8.9 5.9-5.1 9.7-12.7 10.2-20.5 0.5-8.8-3.3-17.8-9.8-23.7-1.8-1.6-4.4 1-2.7 2.6 5.3 4.8 8.6 11.6 8.8 18.7 0.2 7-2.7 13.9-7.6 18.8-5.4 5.4-12.9 7.8-20.2 9-7.1 1.1-14.4 1.2-21.4 0-7.6-1.3-15.1-4.2-21-9.4-1-0.8-2.9-0.7-3.1 0.8-1.3 9.1-3.1 18.6-8.5 26.2-4.5 6.3-11.5 11.3-19.5 11.2-8.3-0.1-16.6-4.7-21.7-11-2.4-2.8-4.1-6.2-4.8-9.9-0.7-3.7-0.1-7.6 1.2-11.1 1.6-4.1 4.3-7.7 7.2-11 3.2-3.5 6.8-6.7 10.4-9.8 1.1-0.9 0.4-2.7-0.8-3.1-6-1.8-12.3-1.1-18.5-1-5.5 0.1-10.7-0.6-15.5-3.6-8.8-5.4-14.1-15.6-15.6-25.6-0.8-5.6-0.2-11.5 2.5-16.6 2.4-4.6 6.3-8.3 10.6-11.2 9.2-6.1 21.4-9.9 32.1-5.8 9.4 3.6 15.3 13 18.6 22q0.6 1.9 1.2 3.8c0.6 2.1 3.5 1.5 3.6-0.5 1.2-12.3 2.5-25.1 7.7-36.4 2.4-5.2 5.5-9.9 9.7-13.7 3.8-3.6 8.4-6.4 13.4-8 4.8-1.5 10-1.8 14.9-0.3 4.6 1.4 8.5 4.3 11.5 8 6.1 7.7 8 18.3 5.8 27.7-2.7 11.2-10.1 20.7-18.7 28q-1.6 1.4-3.2 2.6c-0.6 0.5-1.1 1.2-0.8 2.1 0.2 0.7 1 1.4 1.8 1.4 10.7-0.7 22.3-1.4 32.4 3 2.7 1.2 5.3 2.7 7.6 4.7 0.7 0.7 1.8 0.8 2.6 0 0.7-0.6 0.7-1.9 0-2.6z"/><path class="e" d="m223.4 187.2c-5.4-4.8-13.4-4.6-20.6-4.2 5.6-4.3 10.5-10.2 11.6-17.2 1.1-7.1-2.4-15.1-9.1-17.4-7.1-2.5-15 2-19 8.4-3.9 6.3-4.7 14-5.4 21.5-1.7-5.6-4.9-11.2-10.2-13.4-4.8-2-10.2-0.9-14.8 1.5-3.6 1.9-6.9 4.7-8.5 8.4-1.5 3.7-1.1 7.9 0.2 11.7 1.8 5.1 5.7 9.8 11 11 4.4 1.1 9.1-0.4 13.5 0.9-4.8 4-10 9-9.8 15.2 0.1 5.1 4.2 9.5 8.9 11.5 2 0.8 4.1 1.3 6.2 1.2 4.8-0.4 8.9-4 11-8.4 1.7-3.4 2.5-7.1 3-10.9 5.4 4.8 13.6 6 21 5 3.6-0.4 7.4-1.4 10.3-3.7 3.2-2.5 5.2-6.4 5.3-10.4 0.1-4.1-1.6-8.1-4.6-10.7z"/><path class="d" d="m192.5 222.2c4.9 12.6 10.1 25.9 20 35.5 5.3 5.2 11.8 9 19.1 10.7 3.8 0.8 7.8 1.2 11.7 0.9 3.7-0.3 7.8-1.5 9-5.5 1.3-4-2.2-7.3-6.1-7-4.2 0.4-6.6 4.1-8.1 7.6-0.4 0.9-0.2 2 0.7 2.6 0.8 0.4 2.1 0.2 2.5-0.7 1-2.2 2.3-5.4 4.9-5.8 0.8-0.1 1.8 0.1 2.4 0.7 0.5 0.6 0.3 1.6-0.2 2.4-1.7 2.3-6 2.1-8.5 2.1-3.4-0.1-6.8-0.7-10.1-1.7-11.9-3.7-20-13.5-25.6-24.1-3.1-6-5.7-12.3-8.1-18.7-0.3-0.9-1.2-1.6-2.3-1.3-0.9 0.3-1.6 1.4-1.3 2.3z"/></svg>