<svg xmlns="http://www.w3.org/2000/svg" viewBox="0.1 0.7 1547.6 318.7" xmlns:v="https://vecta.io/nano"><defs><clipPath id="A"><path d="M-125-90h1797.23v500.55H-125z"/></clipPath></defs><path d="M452.5 37.1H252.8v61.5h94.5l-69.3 123-34.7 61.5h200.2v-61.5h-94.9l69.3-123z" fill="#61248c"/><g clip-path="url(#A)" fill="#61248c"><path d="M611.9 37.1H470.2v246h61.5v-66.3h80.2c49.6 0 89.9-40.2 89.9-89.9 0-49.6-40.3-89.8-89.9-89.8zm28.4 89.8c0 3.8-.8 7.4-2.2 10.9-1.4 3.4-3.5 6.6-6.2 9.2-2.6 2.6-5.7 4.7-9.2 6.1-3.4 1.5-7.1 2.2-10.8 2.2h-80.2V98.6h80.2c3.7 0 7.4.7 10.8 2.1 3.5 1.5 6.6 3.5 9.2 6.2 2.7 2.6 4.8 5.7 6.2 9.2 1.4 3.4 2.2 7.1 2.2 10.8zm-391.2 33.7c0-68.8-55.7-124.5-124.5-124.5C55.9 36.1.1 91.8.1 160.6c0 68.7 55.8 124.5 124.5 124.5 68.8 0 124.5-55.8 124.5-124.5zm-61.5 0c0 34.8-28.2 62.9-63 62.9-34.7 0-62.9-28.1-62.9-62.9s28.2-63 62.9-63c34.8 0 63 28.2 63 63zM824 117.9h-52.8l52.6-68.4v-9h-63.9v9.2h51.9l-52.7 68.6.3 9H824zm55.5 11.5c15.9 0 27.7-7.5 34.1-19.7l.4 17.5h10.2V.7h-10.6V58c-6.5-12-18.4-19.6-34.1-19.6-25.5 0-43.1 19.6-43.1 45.5 0 25.8 17.6 45.5 43.1 45.5m1.2-80.9c19.5 0 33.1 14.5 33.1 35.8 0 21.2-13.6 35-33.1 35s-34-14.2-34-35.4 14.2-35.4 34-35.4zm80.8 23.9c0-9.2 3.9-24.1 20.2-24.1 4.3 0 6.2.9 6.2.9l3.2-8.5s-3.5-2.3-9.6-2.3c-10.8 0-16.8 6.4-20.2 14.3l-.3-12.2h-10.1v86.8h10.6V72.4zm117 37.3l.3 17.6h10.3V40.5h-10.3l-.3 17.9c-6.4-12-18.2-20-34.2-20-25.5 0-43 19.7-43 45.5s17.5 45.5 43 45.5c16 0 27.8-7.5 34.2-19.7zm-33 9.6c-19.8 0-33.9-14.2-33.9-35.4s14.1-35.4 33.9-35.4c19.9 0 33.2 14.5 33.2 35.8 0 21.2-13.7 35-33.2 35zm492 78.2l-.4 17.9c-6.4-12-18.2-20-34.2-20-25.4 0-43 19.6-43 45.5 0 25.8 17.6 45.5 43 45.5 16 0 27.8-7.5 34.2-19.7l.4 17.6h10.2v-86.8zm-33.2 78.8c-19.9 0-34-14.2-34-35.4s14.1-35.4 34-35.4c19.8 0 33.1 14.5 33.1 35.8 0 21.2-13.7 35-33.1 35zm-351.3-149l34.3-86.8h-11l-28.8 75.1-28.7-75.1h-11.4l34.6 86.8zm89.3-88.9c-25.1 0-44.3 19.7-44.3 45.5s19.2 45.5 44.3 45.5 44.1-19.7 44.1-45.5-19-45.5-44.1-45.5zm0 80.9c-19.5 0-33.8-14.7-33.8-35.4s14.3-35.6 33.8-35.6 33.8 14.9 33.8 35.6-14.5 35.4-33.8 35.4zm128.9-45.1c0-16 11.5-25.9 26.6-25.9 15 0 23.7 9.9 23.7 25.9v53.1h10.6V73.6c0-23-12.7-35.2-31.6-35.2-14.7 0-24.3 7.3-29.2 16.1l-.6-14h-10.1v86.8h10.7l-.1-53.1zm39.5 121c-14.7 0-24.2 7.2-29.2 16.1l-.5-14h-10.1V284h10.6v-53.1c0-15.9 11.5-25.8 26.6-25.8 15 0 23.7 9.9 23.7 25.8V284h10.6v-53.6c0-23-12.7-35.2-31.7-35.2m56.5-191.8l-12.3 25.3h10.3l12.5-25.3z"/><path d="M1454.9 40.5h10.6v86.8h-10.6zM912.6 195.2c-25.1 0-44.3 19.6-44.3 45.5 0 25.8 19.2 45.5 44.3 45.5s44.1-19.7 44.1-45.5c0-25.9-19-45.5-44.1-45.5zm0 80.9c-19.5 0-33.8-14.7-33.8-35.4 0-20.8 14.3-35.6 33.8-35.6s33.8 14.8 33.8 35.6c0 20.7-14.5 35.4-33.8 35.4zm66.8 18.7c0 8.3-2 14.7-12.3 14.7-4.2 0-7.7-1.1-7.7-1.1v9.3s4.1 1.7 9.2 1.7c14.3 0 21.4-7.9 21.4-21.9V197.3h-10.6zm5.4-135.4q-1.4 0-2.7.5-1.3.6-2.3 1.6-1 1-1.5 2.3-.5 1.3-.5 2.7 0 1.4.5 2.7.5 1.3 1.5 2.3 1 1 2.3 1.5 1.3.5 2.7.5c3.9 0 6.8-3.1 6.8-7s-3-7.1-6.8-7.1zm37.2 0q-1.4 0-2.7.5-1.3.6-2.3 1.6-1 1-1.5 2.3-.6 1.3-.6 2.7 0 1.4.6 2.7.5 1.3 1.5 2.3 1 1 2.3 1.5 1.3.5 2.7.5c3.9 0 6.9-3.1 6.9-7s-3-7.1-6.9-7.1z"/><path d="M1016.7 197.3h10.4V284h-10.4zm69.6 39.7l-8-3.4c-9.5-3.9-15.9-7.1-15.9-16.1s7.8-13.1 15.9-13.1c6.7 0 12.6 2.7 18.1 8.7l6.3-6.2c-6-7.6-15-11.7-24.7-11.7-14 0-25.9 8.7-25.9 22.7 0 12.5 9.2 18.7 19.7 23.2l10.1 4.2c8.5 3.6 14.5 7.6 14.5 16.5 0 9.9-7.8 14.8-18.8 14.8-9.9 0-16.4-4.4-21.6-10l-5.6 6.9s13.4 12.7 27.4 12.7c15.4 0 29-8.7 29-24.6 0-13.4-9.2-20-20.5-24.6m-22.3-76.8h-10.8l18.3 21.9h11l18.1-21.9h-10.7l-12.8 15.9zm161.8 35c-25.2 0-44.3 19.7-44.3 45.5 0 25.9 19.1 45.5 44.3 45.5 25.1 0 44-19.6 44-45.5 0-25.8-18.9-45.5-44-45.5zm0 80.9c-19.5 0-33.8-14.7-33.8-35.4s14.3-35.6 33.8-35.6 33.8 14.9 33.8 35.6-14.5 35.4-33.8 35.4zm86.5-165.4c0 11.7 5.5 17.7 17 17.7 3.2 0 8.7-1.1 10.8-2.3l-3-8.4s-2.2 1.1-6.3 1.1c-5.4 0-7.9-2.4-7.9-9.7V49.6h17.3v-9h-17.3v-23h-10.7v23h-13.8v9h13.8v61.1zM807.9 195c-15.9 0-27.7 7.9-34.3 20l-.3-17.9h-10.1v120.4h10.6v-50.8c6.4 11.8 18.2 19.3 34.1 19.3 25.5 0 43.1-19.5 43.1-45.5S833.4 195 807.9 195zm-1.2 80.9c-19.5 0-33.1-14-33.1-35.1 0-21 13.6-35.7 33.1-35.7s33.8 14.3 33.8 35.4c0 21-14.1 35.4-33.8 35.4m342.7-101.6h-10.6v23H1125v9.1h13.8v61c0 11.7 5.5 17.7 17 17.7 3.2 0 8.8-1 10.8-2.3l-2.9-8.3s-2.2 1.1-6.3 1.1c-5.5 0-8-2.5-8-9.7v-59.5h17.4v-9h-17.4v-23zm7.2 15.9h10.3l12.4-25.3h-10.4zm159.3 82.1l-28.6-75h-11.4l34.5 86.7h11l34.3-86.7h-11z"/></g></svg>