<svg version="1.2" xmlns="http://www.w3.org/2000/svg" viewBox="0 0 1200 1200"><style>.a{fill:#c4e0f8}.b{fill:#f8d6c7}</style><path class="a" d="m952.6 455.9c-5.7 1.8-9.7 7.3-10.1 13q-0.1 2 0.4 3.9c2.6 10.8 19.8 16.5 27.6 8.3 10.1-10.7-4.9-29.2-17.9-25.2z"></path><path class="b" d="m498.4 298.6c-0.7 5.9 2.5 11.9 7.6 14.7q1.7 0.9 3.7 1.3c10.8 2.1 23.3-11.1 19.1-21.5-5.4-13.7-28.5-8-30.4 5.5z"></path><path class="b" d="m1184.5 740.5c-19.5-7.2-25.4 17.2-11.2 28 4.2 3.2 10.1 3.2 14.4 0.1 10.2-7.6 8.6-23.8-3.2-28.1z"></path><path class="a" d="m707.8 538.7c-1.7-2.9-5.2-5-8.4-5.7-1.6-0.5-3.3-0.7-5-0.6-3.8 0.4-7 2.1-9.5 4.9q0 0 0 0-0.7 0.6-1.4 1.3c-1.2 1.1-2 2.6-2.7 4-1.1 2.4-1.6 5.3-1.3 7.9 0.2 3.2 1.3 5.3 2.9 8.1q2.1 3.1 5.6 4.8l3.4 1.1q3.6 0.6 7.1-0.6c4.6-1.2 9.4-4.4 11.3-9 1.5-3.8 1.7-7.6 0.4-11.5-0.5-1.7-1.5-3.2-2.4-4.7z"></path><path class="a" d="m358.5 721.3c-6.8 0.6-12.4 4.8-15.6 10.3-4.3 7.5-3.9 17.3 4.1 23.3 14 10.5 37.9-2.5 31.4-20.9-2.5-7.2-12.6-13.4-19.9-12.7z"></path><path class="b" d="m690.8 1126.5c-5.7-5-18.1-6-24.6-1.5-16.7 11.6-4.5 37.1 13.7 36.9 10.5-0.2 16.7-8.2 17.7-17.1 0.7-6.6-1.4-13.6-6.8-18.3z"></path><path class="a" d="m354 1170c-3.2 4.9-3 11.8 0.4 16.5q1.1 1.6 2.7 2.8c8.9 6.6 25.9 0.3 26.7-11 1.1-14.7-22.2-19.6-29.8-8.3z"></path><path class="b" d="m1002.8 100.8q-3.1-2-6.7-2.3l-3.6 0.3q-3.7 0.7-6.6 3.2c-2.2 2.4-3.8 4.1-4.8 7.2-0.8 2.5-1.1 5.4-0.6 8 0.3 1.5 0.8 3.2 1.7 4.6q0.5 0.7 1 1.5 0 0 0 0c1.8 3.3 4.4 5.8 8 7 1.6 0.6 3.3 0.8 5 0.7 3.3 0.1 7.2-1.1 9.6-3.5 1.2-1.3 2.5-2.5 3.4-4 2.2-3.5 3-7.2 2.4-11.2-0.7-5-4.6-9.2-8.8-11.5z"></path><path class="a" d="m34.8 22.2c-4.1-3.4-9.9-3.6-14.4-0.6-14.7 9.9-10 34.7 9.8 28.5 12-3.8 14.5-19.8 4.6-27.9z"></path><path class="a" d="m1027.6 901.4c-17-1.8-23.4 21.1-11.7 30.9 6.7 5.7 15.1 4 20.7-1.1 4-3.7 6.5-9.3 5.7-15.3-0.8-6.3-8.1-13.7-14.7-14.5z"></path><path class="b" d="m294 519.4c-12.4 7.6-9.9 30 6.4 30.8 6.3 0.3 14.3-5.6 16-11.4 1.7-5.5 0.1-11.1-3.1-15.3-4.5-5.6-12.1-8.4-19.3-4.1z"></path><path class="a" d="m437 198.5c-5 3.1-7.5 9.5-6.3 15.2q0.4 1.9 1.3 3.6c5.4 9.7 23.5 10.8 28.8 0.9 7-13-12.2-27-23.8-19.7z"></path><path class="b" d="m567.8 1019.8c-4.9-2.1-10.6-0.7-14 3.4-11.5 13.6-0.1 36.1 17.2 24.7 10.5-6.9 8.5-23-3.2-28.1z"></path><path class="b" d="m145.7 1055.3c2.8 4.5 8.3 6.6 13.4 5.1 17.2-4.8 20.5-29.7-0.3-30.1-12.5-0.2-19.9 14.2-13.1 25z"></path><path class="b" d="m787.6 702.5c-1.4-3.3-4.7-6-8-7.2-1.6-0.7-3.3-1.2-5.1-1.3-4-0.2-7.5 1.2-10.5 3.7q-0.1 0-0.1 0-0.8 0.6-1.6 1.1c-1.4 1-2.5 2.4-3.4 3.8-1.5 2.3-2.4 5.3-2.5 8-0.2 3.4 0.6 5.7 1.8 8.9q1.8 3.6 5.2 5.8l3.4 1.6q3.6 1.2 7.4 0.4c5-0.5 10.4-3.1 13-7.7 2.2-3.7 2.9-7.6 2.2-11.8-0.3-1.9-1.1-3.6-1.8-5.3z"></path><path class="a" d="m1118.2 670.6q-0.3-0.8-0.6-1.7c-0.6-1.5-1.7-2.9-2.7-4-1.8-2-4.3-3.5-6.8-4.2-3.1-1-5.4-0.8-8.6-0.4q-3.8 0.8-6.6 3.4l-2.3 2.8q-1.9 3.1-2.1 6.7c-0.6 4.8 0.6 10.4 4.2 13.9 2.9 2.9 6.3 4.4 10.4 4.7 1.8 0.1 3.6-0.2 5.3-0.4 3.3-0.5 6.6-3 8.5-5.7 1-1.3 1.8-2.9 2.3-4.5 1.2-3.6 0.7-7.2-0.9-10.6q0 0-0.1 0z"></path><path class="a" d="m168.3 0h-20c5.6 5.2 13.8 6.5 20 0z"></path><path class="a" d="m171.9 1194.9c6.4-12.2-4.2-26.6-18.1-25.2-5.9 0.5-10.6 4.9-11.7 10.6-1.6 8 1.4 15.3 6.2 19.7h20c1.3-1.3 2.5-3 3.6-5.1z"></path><path class="b" d="m66.9 702.2q-2.1 1.6-3.6 3.7c-4.4 6.1-4.7 15-0.5 21.3 9.9 14.8 40.1 8.4 38.7-10.8-1.1-14.6-23.2-22.8-34.6-14.2z"></path><path class="a" d="m113.5 957.3c-1.6-5.4-6.3-10.1-11.3-12.6-2.4-1.4-5-2.3-7.8-2.8-6.1-1-11.9 0.6-17 4q-0.1 0-0.1 0.1-1.3 0.7-2.6 1.4c-2.4 1.3-4.4 3.4-6 5.4-2.8 3.3-4.6 7.8-5.3 12-0.9 5.3 0 9.1 1.4 14.2q2.2 5.9 7.1 9.9l5.1 3.1q5.5 2.4 11.4 1.9c8-0.1 16.9-3.2 21.8-9.9 3.9-5.5 5.7-11.4 5.2-18.2-0.2-2.9-1.1-5.7-1.9-8.5z"></path><path class="b" d="m128.4 409.2c-17.3 4.1-21.8 28.8-1.1 30.2 12.6 0.8 20.6-13.3 14.3-24.4-2.6-4.6-8-7-13.2-5.8z"></path><path class="b" d="m1194.7 296.3q-2.7 0-5.3 0.7c-7.5 2.3-13.4 9.3-14 17.2-1 12.8 12.5 23.4 24.6 23.3v-40.2c-1.7-0.6-3.5-0.9-5.3-1z"></path><path class="b" d="m13.9 330.1c7.5-11.1-1.5-28.5-13.9-32.8v40.2c5.4-0.1 10.5-2.3 13.9-7.4z"></path><path class="a" d="m422.2 852.3c1.5 8.4 11.6 17.1 19.9 17.6 7.7 0.5 14.6-3.2 19.1-8.8 6.1-7.5 7.4-18.4-0.5-26.6-13.7-14-42.5-3.9-38.5 17.8z"></path><path class="a" d="m544.9 571c-5.8 7.6-5.9 18.2-0.2 25.9 13.5 18.4 42.7 15.5 50.5-5.7 13-35.1-31-45.8-50.3-20.2z"></path><path class="b" d="m235.8 638.7c-1.9 9.5 4.1 16.6 12 19.2 5.7 1.9 12.4 1.3 17.7-2.6 5.6-4.2 8.8-15.1 6-21.9-7.2-17.2-32.5-11.1-35.7 5.3z"></path><path class="b" d="m222.5 208.6c-4.4-3.7-10.9-4.3-16.3-3q-4.2 0.7-7.5 3.2l-2.9 3q-2.6 3.5-3.1 7.8c-0.1 3.7-0.1 6.4 1.4 9.9 1.2 2.8 3.2 5.5 5.6 7.2 1.5 1.1 3.2 2.2 5 2.7q1 0.3 2 0.5 0 0 0 0c4.1 1.4 8.3 1.6 12.3-0.2 1.8-0.7 3.4-1.8 4.8-3.2 2.9-2.5 5.3-6.5 5.5-10.3 0-2.1 0.2-4.2-0.2-6.2-0.8-4.6-3-8.3-6.6-11.4z"></path><path class="a" d="m987.8 344.4c-6.2 2.7-10.3 9.4-10 16.1q0.1 2.2 0.9 4.4c4.4 12 24.7 16.5 32.6 6.2 10.3-13.6-9.1-32.9-23.5-26.7z"></path><path class="a" d="m711.4 221.2c0.7 13 10.9 20.4 22 21.2 8.1 0.6 16.7-2.3 22.3-9.1 6.1-7.4 6.7-22.7 0.8-30.6-15.1-20.2-46.2-4-45.1 18.5z"></path><path class="b" d="m936.2 856.7c-9.4-7.2-26.3 1.6-27.3 13.1q-0.2 2.1 0.3 4.1c1.3 6 6.4 11 12.5 11.9 14.3 2 26.7-19.6 14.5-29.1z"></path><path class="b" d="m8.2 178.5c0.6-6.7-3.2-13.4-8.1-17.8q-0.1 0-0.1 0v33.3q0.9-0.7 1.7-1.5c3.9-3.9 6-8.5 6.5-14z"></path><path class="b" d="m1192 155.7l-4.8-0.8q-5.2-0.1-9.7 2.3c-3.6 2.4-6.2 4.3-8.5 8-1.9 3-3.1 6.7-3.2 10.3-0.1 2.1 0 4.5 0.8 6.5q0.4 1.2 0.9 2.3 0 0.1 0 0.1c1.3 4.9 4 8.9 8.4 11.6 1.9 1.2 4.1 2.1 6.3 2.5 4.4 1.1 9.8 0.8 13.7-1.7 1.4-0.9 2.8-1.8 4.1-2.8v-33.3q-3.4-3.5-8-5z"></path><path class="b" d="m627.9 52.3c2 11.2 15.5 22.9 26.5 23.6 10.3 0.6 19.6-4.3 25.5-11.7 8.1-10.1 9.9-24.6-0.6-35.5-18.3-18.7-56.7-5.2-51.4 23.6z"></path><path class="b" d="m663.9 1016.1c11.4 25.2 47.1 26.3 62.1 2.7 6.3-10 5.3-22.8-2.5-31.7-25.7-29.5-78.4-12.7-59.6 29z"></path><path class="a" d="m681.9 640q-3.1-2.5-7.1-3l-3.8-0.1q-3.8 0.5-6.9 2.8c-4.3 2.6-8.1 7.3-8.6 12.5-0.3 4.3 0.6 8.1 3.1 11.6 1.1 1.5 2.5 2.8 3.9 4.1 2.6 2.4 6.7 3.4 10.2 3.1 1.8 0 3.5-0.4 5.2-1 3.7-1.5 6.3-4.3 8-7.8q0 0 0 0 0.5-0.8 1-1.7c0.9-1.4 1.2-3.2 1.5-4.9 0.4-2.7 0-5.7-1.1-8.3-1.2-3.2-3-4.9-5.4-7.3z"></path><path class="a" d="m1067.5 446.9c-1.8 0.8-3.6 1.8-5.1 3.1-6.8 5.6-9.9 15.6-7 24.1 6.7 19.8 42.9 21.6 47.1-0.5 3.2-16.9-19.3-33-35-26.7z"></path><path class="a" d="m423.3 341.2c-22.5-18.4-41.5 11.2-27.6 31.9 4.1 6.2 11.9 8.9 19 6.7 17-5.3 22.2-27.5 8.6-38.6z"></path><path class="b" d="m888.5 198.9c-26.5 8.8-34.1 43.7-12.4 60.9 35.9 28.3 65-18.8 42.5-50.9-6.7-9.6-18.9-13.7-30.1-10z"></path><path class="b" d="m756.1 413.4c-2-5.4-7.2-9.9-12.5-12.1-2.5-1.3-5.3-2.1-8.2-2.3-6.4-0.6-12.2 1.5-17.3 5.3q0 0 0 0.1-1.3 0.8-2.6 1.6c-2.4 1.5-4.2 3.8-5.8 6-2.6 3.6-4.2 8.3-4.6 12.8-0.5 5.5 0.7 9.3 2.5 14.4q2.7 5.9 8 9.7l5.4 2.8q5.9 2.1 12 1.1c8.2-0.6 17.1-4.5 21.6-11.7 3.7-5.9 5.1-12.1 4.1-19.1-0.4-2.9-1.6-5.8-2.6-8.6z"></path><path class="a" d="m616 787.3c-6.3-3.7-14.9-2.9-20.5 1.6q-1.9 1.5-3.3 3.6c-7.8 11.4 1.3 32.2 15.4 32.5 18.4 0.4 23.1-28.9 8.4-37.7z"></path><path class="b" d="m265.4 869.2c-14.3-1.2-28.8 6.1-32.3 22.6-5.9 28.4 30.4 55.4 53.7 32.6 9.1-8.8 11.4-28.5 5.2-39-5.7-9.9-16.1-15.3-26.6-16.2z"></path><path class="a" d="m832.9 1010c-6.2 17 2.8 32 16.6 39.1 10 5.1 22.6 6 33.4 0.3 11.7-6.1 20.8-25.3 17.5-38.5-8.2-34.1-56.7-30.2-67.5-0.9z"></path><path class="a" d="m873.7 368.5c-26.5 3.8-36.4 40.2-5.6 44.9 18.6 2.8 32.5-17.2 24.6-34.5-3.4-7.3-11.1-11.5-19-10.4z"></path><path class="a" d="m558.8 1151.1c-2.1-8.1-6.6-14.4-13.5-19.2-8.4-5.9-20.1-6-29.5-2.8q-7.3 1.8-12.8 6.8l-4.7 5.7q-4.1 6.7-4.3 14.5c0.5 6.6 0.9 11.3 4.1 17.2 2.5 4.8 6.4 9.2 11.1 12.1 2.7 1.6 5.9 3.3 9.2 3.9q1.8 0.3 3.7 0.6 0 0 0 0c7.5 1.9 14.9 1.5 21.7-2.2 3.1-1.7 5.8-3.9 8.1-6.5 4.7-4.9 8.4-12.3 8.1-19.2-0.2-3.7-0.3-7.4-1.2-10.9z"></path><path class="b" d="m1048.1 224.9c-3.5 6.8-2 15.6 3.1 21.1q1.7 1.9 3.9 3.2c12.5 7.2 33.4-3.7 32.7-18.3-0.9-19.2-31.7-21.9-39.7-6z"></path><path class="a" d="m463 694c-9.6 6-10.9 17-6.9 25.8 3 6.4 8.9 11.7 16.5 13.1 8.1 1.5 20-4.6 23.5-12.3 9.1-20.1-16.4-36.9-33.1-26.6z"></path><path class="b" d="m642.1 284.6c-1.6-1.3-3.5-2.7-5.6-3.4q-1.2-0.3-2.4-0.7 0 0 0 0c-4.7-1.9-9.6-2.3-14.4-0.6-2.1 0.8-4.1 2-5.8 3.5-3.6 2.8-6.7 7.3-7.1 11.8-0.2 2.4-0.5 4.9-0.2 7.2 0.7 5.5 3 10 7.1 13.8 4.9 4.6 12.5 5.7 19 4.5q4.8-0.5 8.9-3.3l3.6-3.2q3.3-4 4.1-9.1c0.3-4.3 0.5-7.5-1-11.6-1.3-3.3-3.4-6.6-6.2-8.9z"></path><path class="b" d="m241.2 378.3c-7.4 2.1-12.6 8.8-12.7 16.6-0.5 25.8 32.8 40.8 42 12.1 5.5-17.4-11.5-33.6-29.3-28.7z"></path><path class="b" d="m752.2 821.9c-11.5-9.7-34.6 2.6-29 17.8 4.3 11.6 24.2 13.2 31.5 3.5q1.3-1.8 2.1-3.8c2.1-6 0.3-13.3-4.6-17.5z"></path><path class="a" d="m1198.8 585.5q-1.2 1.9-1.8 3.9c-1.5 5-0.3 10.8 3 14.8v-20.1q-0.6 0.7-1.2 1.4z"></path><path class="a" d="m2.5 606.7c12 9.1 34.4-4.4 28-19.3-4.7-10.8-22.8-11.9-30.5-3.3v20.1q1.1 1.4 2.5 2.5z"></path><path class="b" d="m447.3 983.3c-12.9-1.6-22 7.2-24.7 18-2 7.9-0.6 16.8 5.2 23.5 6.1 7.2 21.1 10.5 29.9 6.1 22.6-11.3 12-44.8-10.4-47.6z"></path><path class="a" d="m846.9 58.1c-5.2-5.1-13.3-6.6-20.2-5.6q-5.3 0.4-9.7 3.2l-4 3.4q-3.7 4.1-4.8 9.6c-0.5 4.6-0.8 8 0.7 12.5 1.2 3.6 3.4 7.2 6.3 9.7 1.7 1.5 3.7 3.1 5.9 3.9q1.2 0.4 2.5 0.8 0 0.1 0 0.1c5 2.2 10.2 2.8 15.4 1.1 2.3-0.8 4.5-2 6.4-3.5 3.9-2.8 7.4-7.6 8-12.4 0.3-2.6 0.8-5.2 0.5-7.7-0.5-6-2.8-10.9-7-15.1z"></path><path class="a" d="m219.9 763.3c-16.3-7.2-34.8 9.9-19 23.4 9.5 8.2 24.5 1.8 26.1-10.8 0.7-5.3-2.2-10.4-7.1-12.6z"></path><path class="b" d="m965.9 0h-20.4c6.4 2.4 13.7 2.5 20.4 0z"></path><path class="b" d="m980.1 1169.3c-13.7-28-57.7-25.9-51.8 10 1.7 10.3 8.6 17.5 17.2 20.7h20.4c3.4-1.3 6.7-3.2 9.5-5.8 6.9-6.4 8.8-16.5 4.7-24.9z"></path><path class="a" d="m802.3 1121c-18.9-2.8-35.5 26.1-19.2 38.7 12.5 9.7 35-2.1 36.4-17.5 0.1-1.8 0-3.7-0.4-5.5-1.7-7.9-8.6-14.6-16.8-15.7z"></path><path class="b" d="m260.3 1070c-1.6 23.1 31.1 40.8 51 29.9 2.3-1.4 4.5-3 6.3-5 8.2-8.6 10.7-22.4 5.4-33.2-12.1-25.3-60.8-21.9-62.7 8.3z"></path><path class="b" d="m1134.8 14.5c-6.6-3.9-18.9-2.4-24.4 3.2-14.3 14.6 2.6 37.3 20.4 33.6 10.2-2.2 14.9-11.3 14.1-20.2-0.6-6.5-4-13-10.1-16.6z"></path><path class="a" d="m826.2 529.9c-11.5 16.5 1.3 39.2 21.6 39.7 8.5 0.2 16.2-5.2 18.8-13.4 8.8-27.1-21.5-53.6-40.4-26.3z"></path><path class="b" d="m587.8 140.7c-2.6-2.1-5.6-3.5-8.5-4.9-5.6-2.9-13.1-2.6-18.9-0.4-3 0.9-5.8 2.3-8.3 4.2-5.5 4.3-8.6 10.3-9.8 17.1q0 0 0 0.1-0.4 1.6-0.8 3.2c-0.8 2.9-0.6 6.2-0.2 9.1 0.6 4.8 2.9 9.7 5.8 13.5 3.7 4.8 7.5 6.9 12.8 9.7q6.5 2.7 13.5 1.7l6.4-1.7q6.2-2.7 10.3-8c6.1-6.6 10.3-16.3 8.5-25.4-1.4-7.5-4.9-13.4-10.8-18.2z"></path><path class="a" d="m99.8 92.4c-10.6 7.6-11.2 20.2-5.9 30 4 7.1 11.1 12.7 19.9 13.7 9.4 1.1 22.6-6.8 26-16 8.8-23.7-21.7-40.9-40-27.7z"></path><path class="a" d="m1184.8 868.7q-2.9-7.7-9.3-12.8c-5.8-3.8-10.1-6.4-17.1-7.5-5.5-0.9-11.8-0.4-17 1.7-3.2 1.3-6.6 2.9-9.1 5.3q-1.5 1.3-2.9 2.7 0 0 0 0c-6.3 5-10.6 11.5-11.9 19.6-0.5 3.6-0.4 7.3 0.4 10.8 1.1 7.1 5 14.9 11 19 3.1 2.1 6.3 4.4 9.8 5.8 8.2 3.4 16.2 3.5 24.6 0.8 10.3-3.3 17.8-13.1 21-22.9q3.1-7.2 2.3-15z"></path><path class="a" d="m278.9 40.2c-15.7 0.9-30.5 11.2-31.7 29.6-2.1 31.9 41.6 55.7 63.5 27.4 8.5-11 8-32.8-0.3-43.4-7.8-9.8-19.9-14.2-31.5-13.6z"></path><path class="a" d="m420.6 532c-1.7-0.4-3.6-0.6-5.4-0.4-15.5 1-27.6 23.4-18.1 36 12.3 16.6 41.4 0.5 39-18.6-1-8.1-7.6-15.1-15.5-17z"></path><path class="a" d="m348.2 209.1c-19.4-15.7-50.5 0.7-34.1 24.7 9.9 14.6 32.4 11.3 39.2-5.2 2.8-6.9 0.8-14.8-5.1-19.5z"></path><path class="a" d="m186.7 530.4l-4.8-2.9q-5.1-2.4-10.7-2c-7.5-0.1-15.9 2.7-20.6 8.9-3.8 5.1-5.6 10.7-5.2 17 0.1 2.7 1 5.4 1.7 8.1 1.3 5 5.7 9.5 10.3 11.9 2.3 1.4 4.7 2.3 7.3 2.8 5.8 1.1 11.2-0.4 16.1-3.5q0 0 0.1 0 1.2-0.6 2.5-1.3c2.2-1.2 4.1-3.1 5.7-5 2.7-3.1 4.4-7.2 5.2-11.2 0.9-5 0.1-8.5-1.1-13.4q-2-5.5-6.5-9.4z"></path><path class="b" d="m549.4 917.1c-3.1 6.2-1.7 13.7 3.4 18.4 12.2 11.2 32.4 5.1 35-11 4.4-26.7-28.3-28.2-38.4-7.4z"></path><path class="b" d="m119.1 285.3c-5.2-3.1-12.4-2.9-17.2 0.9-11.4 8.8-4.5 32.7 10.8 30.5 11.8-1.7 17.2-19.9 9.6-28.7q-1.4-1.6-3.2-2.7z"></path><path class="b" d="m925.9 701.3c-9.5-7.8-21.9-9.5-32.8-6.5-14.9 4-26.9 16.8-24.3 34.7 4.4 30.9 51 44.8 66.2 13.2 5.9-12.2 1-33-9.1-41.4z"></path><path class="b" d="m1058.4 765l-2.9-2.8q-3.2-2.4-7.1-2.9c-5.2-1.2-11.5-0.5-15.6 3.1-3.4 3-5.5 6.6-6.2 11.1-0.3 1.9-0.1 3.9 0 5.8 0.2 3.7 2.6 7.5 5.4 9.8 1.4 1.3 2.9 2.3 4.7 3 3.8 1.6 7.8 1.4 11.7 0q0 0 0 0 1-0.3 1.9-0.6c1.8-0.4 3.4-1.5 4.7-2.6 2.3-1.7 4.2-4.3 5.3-7 1.4-3.3 1.3-5.9 1.2-9.4q-0.6-4.2-3.1-7.5z"></path><path class="a" d="m438.7 45.3c-15.4 4-21.1 23.5-9.4 34 19.2 17.5 37.5-8 26.1-27.1-3.4-5.7-10.2-8.6-16.7-6.9z"></path><path class="a" d="m1020.1 554.9c-2.6-0.8-5.3-1.2-7.9-1.2-11.9 0.1-23.6 7.9-27.7 19.2-9.8 26.4 26.5 58.9 49.6 39.4 17.6-14.9 7.7-50.8-14-57.4z"></path><path class="b" d="m35.4 1055.5c-12.9 4.2-15.3 25.9-5 34.2q1.9 1.5 4.1 2.4c6.4 2.5 14.5 0.9 19.2-4.4 11-12.1-1.5-37.7-18.3-32.2z"></path><path class="a" d="m1156.4 1114.9c-13.2 1.2-25.3 10.3-25.8 25.8-0.8 26.9 36.6 45.6 54.2 21.1 6.8-9.5 5.8-27.8-1.5-36.4-6.9-8-17.2-11.4-26.9-10.5z"></path><path class="b" d="m67.2 808.8c-20.4 6.4-24.6 33.7-7.9 47.4 7.1 5.8 17 6.2 24.5 1.1 25.1-17 17.1-59-16.6-48.5z"></path><path class="a" d="m1190.1 427.4c-1.3 2.5-2.8 5-3.5 7.7-1.7 6.4-1.1 12.3 1.7 18.3 2.3 5 6.7 8.7 11.7 11.1v-45.9c-4.1 1.8-8 4.9-9.9 8.8z"></path><path class="a" d="m18.4 467.2l5.4-2q5.4-2.9 8.6-8.1c2.2-4.7 3.8-8.1 3.9-13.3 0.2-4.2-0.7-8.7-2.8-12.4-1.2-2.2-2.7-4.6-4.7-6.3q-1.1-0.9-2.2-1.8-0.1 0-0.1-0.1c-4.2-4.1-9.4-6.7-15.5-6.9-2.7-0.1-5.4 0.3-7.9 1.2q-1.6 0.4-3.1 1.1v45.9c2.3 1.1 4.7 1.9 7.1 2.3q5.6 1.7 11.3 0.4z"></path><path class="b" d="m544.7 423.5c-3.4-5.3-7.2-7.9-12.5-11.3q-6.6-3.4-14-3.1l-6.9 1.3q-6.7 2.2-11.6 7.4c-6.9 6.4-12.2 16.2-11.2 25.9 0.8 8 3.9 14.6 9.7 20.1 2.5 2.4 5.6 4.2 8.5 6 5.6 3.5 13.5 3.8 19.8 2.1 3.2-0.7 6.3-1.9 9.1-3.7 6.2-4 9.9-10 11.8-17q0 0 0-0.1 0.6-1.6 1.2-3.3c1-3 1.1-6.4 1-9.5-0.2-5.1-2.1-10.5-4.9-14.8z"></path><path class="b" d="m1064 1008.8c-6-0.2-12.3 2.3-16.2 7.6-4.2 5.7-4 17.1 0.6 22.7 12 14.4 34.4 1.2 32.7-15.5-1-9.6-8.9-14.7-17.1-14.8z"></path></svg>