<svg xmlns="http://www.w3.org/2000/svg" viewBox="0.3 0.3 717.3 184.4" xmlns:v="https://vecta.io/nano"><defs><clipPath id="A"><path d="M-202-305H920.52v793.7H-202z"/></clipPath></defs><g clip-path="url(#A)"><path d="M57.6 136.3q17.5-5.2 17.5-25.3 0-13.8-8-20-8-6.3-26.6-6.3H10.4v81h13.7V152v-13.5-12.4-12.4-16.6h17.3q11.1 0 15.4 3Q61 103 61 111q0 7.9-4.1 11.5c-2.7 2.3-7.4 3.5-14.6 3.6v12.4l19.1 27.2h17.4z" fill="#27adea"/><path d="M153.5 130.4q-4.4-5.1-12-6.8l2.9-1.3q.9-.4 3.1-2 6-4.6 6-14.1 0-7.9-5.6-14.2-2.9-3.3-8.8-5.3-6-2-14.2-2H93.4v81h35.4q16.6 0 23.4-7.5 5.8-6.5 5.8-15 0-7.6-4.5-12.8zM140 150.7q-4 2.4-11.5 2.4H107v-6.5-15.7-12.6-10-10.9h17.5q7.6 0 11.1 2.5 3.6 2.6 3.6 8.3c0 6.6-4.5 10-14 10.1v12.6h1.5q17.3 0 17.3 10.8 0 6.6-4 9zm88.4-58.9q-8.4-7.1-26.8-7.1h-27.8v81h13.6v-20.2-3.5-12.4-22.4-10.1h13.9q11.2 0 16.4 3.5 5.2 3.5 5.2 11.9 0 8.4-4.1 12.7c-2.5 2.6-6.7 4.1-13.2 4.3v12.4c10.1-.4 17.5-2.7 22.7-6.8q8.6-6.8 8.6-21.5 0-14.8-8.5-21.8z" fill="#040606"/><path d="M43.6 57c6.5-6.7 10.9-12.1 13.4-16.4q3.6-6.4 3.6-13.4 0-12.5-8.6-19.7Q43.5.3 32.1.3 20.7.3 13.5 4.9 6.3 9.4.3 18.4l12.4 7.1Q20 14.1 31.2 14.1q6.4 0 10.6 3.8 4.1 3.9 4.1 9.3 0 5.5-3.9 10.8-3.9 5.3-13.1 14.7L10.6 71.1h19.1z" fill="#27adea"/><g fill="#040606"><path d="M107.9 2.5h-33v13.7h18.5v54.9h14.5zm82.3 62.2q0-10.4-7-17.9-7.1-7.4-19.5-7.8l21.9-24.6V2.5h-53.1v13.6h32.9l-21.1 24.4v11.8q4.7-1.5 9.8-1.5 10.1 0 15.8 4.2 5.7 4.1 5.7 11.1 0 .6 0 1.2-.1.7-.2 1.3-.1.6-.3 1.2-.1.6-.3 1.2h14.8q.6-3 .6-6.3zm118.3.9v5.5h-39.7v-4.4l30.7-38.8h-30.1v-5.5h38.5v4.3l-30.6 38.9zm54.9-63.2v68.7h-6.3v-9.6q-3 4.9-7.9 7.5-4.8 2.6-10.9 2.6-6.9 0-12.4-3.2-5.6-3.1-8.7-8.8Q314 54 314 46.7q0-7.2 3.2-12.8 3.1-5.7 8.7-8.8 5.5-3.1 12.4-3.1 5.9 0 10.7 2.5 4.7 2.4 7.8 7.1V2.4zm-15.3 61q4.1-2.4 6.5-6.8 2.3-4.3 2.3-9.9 0-5.5-2.3-9.9-2.4-4.3-6.5-6.7-4.2-2.3-9.2-2.3-5.2 0-9.4 2.3-4.1 2.4-6.4 6.7-2.4 4.4-2.4 9.9 0 5.6 2.4 9.9 2.3 4.4 6.4 6.8 4.2 2.3 9.4 2.3 5 0 9.2-2.3zm45.2-38.9q4.5-2.5 11.3-2.5v6.4l-1.6-.1q-7.7 0-12 4.7-4.4 4.8-4.4 13.3v24.8h-6.5V22.4h6.3v9.5q2.3-4.9 6.9-7.4zm53.1 2.3q5 4.8 5 14.1v30.2h-6.2v-7.6q-2.3 3.8-6.6 5.9-4.3 2.2-10.2 2.2-8.2 0-13-3.9-4.8-3.9-4.8-10.3 0-6.2 4.5-10 4.5-3.8 14.3-3.8h15.5v-3q0-6.3-3.5-9.5-3.6-3.3-10.3-3.3-4.7 0-8.9 1.5-4.3 1.5-7.3 4.2l-3-4.9q3.7-3.2 8.9-4.9Q426 22 431.7 22q9.6 0 14.7 4.8zm-7.5 37q4-2.5 6-7.3v-8h-15.3q-12.5 0-12.5 8.7 0 4.3 3.2 6.7 3.3 2.5 9.1 2.5 5.6 0 9.5-2.6zm68.8-41.4L486 71.1h-6.8l-21.5-48.7h6.8l18.2 41.5 18.5-41.5zm13.4 46q-1.4-.8-2.7-1.8-1.2-.9-2.4-2-1.1-1.2-2-2.4-1-1.3-1.8-2.7-3.2-5.6-3.2-12.8 0-7.1 3.2-12.7 3.3-5.7 8.9-8.8 5.6-3.2 12.7-3.2 7 0 12.7 3.2 1.4.7 2.6 1.7 1.3.9 2.4 2 1.1 1.2 2.1 2.4.9 1.3 1.7 2.7 3.2 5.6 3.2 12.7 0 7.2-3.2 12.8-.8 1.4-1.7 2.7-1 1.2-2.1 2.4-1.1 1.1-2.4 2-1.2 1-2.6 1.8-5.7 3.2-12.7 3.2-7.1 0-12.7-3.2zm22-5q4.1-2.4 6.4-6.8 2.3-4.3 2.3-9.9 0-5.5-2.3-9.9-2.3-4.3-6.4-6.7-4.1-2.3-9.3-2.3-5.2 0-9.3 2.3-4.1 2.4-6.5 6.7-2.4 4.4-2.4 9.9 0 5.6 2.4 9.9 2.4 4.4 6.5 6.8 4.1 2.3 9.3 2.3 5.2 0 9.3-2.3zm52.8 4.7q-1.8 1.7-4.6 2.6-.7.2-1.4.4-.7.1-1.4.2-.7.2-1.4.2-.7.1-1.5.1-6.8 0-10.5-3.7-3.7-3.7-3.7-10.5V27.9h-8.7v-5.5h8.7V11.7h6.5v10.7h14.9v5.5h-14.9V57q0 4.4 2.2 6.6 2.2 2.3 6.3 2.3 2 0 3.9-.6 1.9-.7 3.3-1.9zm49.7-40.8q5.4 5.3 5.4 15.5v28.3h-6.6V43.5q0-7.6-3.8-11.6-3.8-4-10.8-4-7.9 0-12.5 4.7-4.6 4.7-4.6 12.9v25.6h-6.5V22.4h6.3v8.9q2.7-4.4 7.4-6.9Q624.7 22 631 22q9.2 0 14.6 5.3zm31.6-24h8.8l-15 11.5h-6.5zm-10 19.1h6.6v48.7h-6.6zm-355.5 97.8q5.5 3.1 8.7 8.7 3.1 5.7 3.1 12.9 0 7.3-3.1 12.9-3.2 5.7-8.7 8.8-5.5 3.1-12.4 3.1-6 0-10.7-2.5-4.8-2.4-7.9-7.1v27.1h-6.5v-66.7h6.3v9.7q2.9-4.9 7.8-7.5 4.8-2.5 11-2.5 6.8 0 12.4 3.1zm-3.6 38.2q4.1-2.4 6.5-6.7 2.3-4.4 2.3-9.9 0-5.6-2.3-9.9-2.4-4.3-6.5-6.7-4.2-2.4-9.3-2.4-5.2 0-9.3 2.4-4.1 2.4-6.5 6.7-2.4 4.3-2.4 9.9 0 5.5 2.4 9.9 2.4 4.3 6.5 6.7 4.1 2.4 9.3 2.4 5.1 0 9.3-2.4zm34.4 5q-1.4-.8-2.7-1.7-1.2-1-2.4-2.1-1.1-1.1-2.1-2.4-.9-1.3-1.7-2.6-3.2-5.7-3.2-12.8 0-7.2 3.2-12.8.8-1.4 1.7-2.6 1-1.3 2.1-2.4 1.2-1.1 2.4-2.1 1.3-.9 2.7-1.7 5.6-3.1 12.7-3.1 7 0 12.7 3.1 5.6 3.2 8.8 8.8 3.2 5.6 3.2 12.8 0 7.1-3.2 12.8-.8 1.3-1.7 2.6-1 1.3-2.1 2.4-1.1 1.1-2.4 2.1-1.3.9-2.6 1.7-5.7 3.2-12.7 3.2-7.1 0-12.7-3.2zm22-5q4.1-2.4 6.4-6.7 2.3-4.4 2.3-9.9 0-5.6-2.3-9.9-2.3-4.4-6.4-6.7-4.1-2.4-9.3-2.4-5.2 0-9.3 2.4-4.1 2.3-6.5 6.7-2.4 4.3-2.4 9.9 0 5.5 2.4 9.9 2.4 4.3 6.5 6.7 4.1 2.4 9.3 2.4 5.2 0 9.3-2.4zm14.1 25.5q-2.7-.8-4.5-2.4l2.3-5q2.9 2.5 7.6 2.5 3.9 0 6-2.3 2.1-2.3 2.1-6.9v-52.3h6.5v52.3q0 6.9-3.7 10.9-3.7 4-10.5 4-3.1 0-5.8-.8zm13.4-78.5q-1.4-1.4-1.4-3.3 0-1.9 1.4-3.3 1.4-1.4 3.4-1.4 2 0 3.4 1.4 1.4 1.3 1.4 3.2 0 2-1.4 3.4-1.4 1.4-3.4 1.4-2 0-3.4-1.4zm23.2.1q-1.4-1.4-1.4-3.3 0-1.9 1.4-3.3 1.4-1.4 3.4-1.4 2.1 0 3.5 1.4 1.4 1.3 1.4 3.2 0 2-1.4 3.4-1.4 1.4-3.5 1.4-2 0-3.4-1.4zm.1 12h6.6v48.7h-6.6zm25 47.5q-5.5-1.7-8.5-4.3l3-5.2q3 2.4 7.6 3.9 4.7 1.6 9.7 1.5 6.6 0 9.8-2 3.2-2.1 3.2-5.9 0-2.7-1.7-4.2-1.8-1.6-4.5-2.3-2.7-.8-7.1-1.6l-9.5-2.2q-3.7-1.2-6.2-4-2.5-2.8-2.6-7.7.1-6.1 5.1-10 5.1-3.8 14.2-3.8 4.7 0 9.5 1.2 4.7 1.3 7.7 3.3l-2.8 5.3q-6.1-4.2-14.4-4.2-6.3 0-9.5 2.2-3.2 2.3-3.2 5.9 0 2.7 1.8 4.4 1.8 1.7 4.5 2.5 2.7.7 7.4 1.6 5.9 1.1 9.4 2.2.8.3 1.7.6.8.4 1.5.9.8.5 1.5 1.1.7.5 1.3 1.2 2.5 2.7 2.5 7.4 0 6.4-5.3 10.1-5.3 3.8-14.8 3.8-5.9 0-11.3-1.7zm26.9-66.5l-12 11.4h-6.6l-12-11.4h6.1l9.2 7.5 9.2-7.5zm40.6 64.8q-1.9 1.6-4.6 2.5-.7.2-1.4.4-.7.2-1.4.3-.7.1-1.4.1-.8.1-1.5.1-6.8 0-10.5-3.7-3.7-3.7-3.7-10.5v-29.4h-8.7v-5.6h8.7v-10.6h6.5v10.6h14.8v5.6h-14.8v29.1q0 4.3 2.2 6.6 2.2 2.2 6.3 2.2.5 0 1 0 .5 0 1-.1.4-.1.9-.2.5-.1 1-.3 1.9-.6 3.3-1.9zm-9.6-67.7h5.3l-.8 15.3h-4.5zm25.3 68q-1.4-.7-2.6-1.7-1.3-1-2.4-2.1-1.2-1.1-2.1-2.4-1-1.2-1.8-2.6-3.2-5.7-3.2-12.8 0-7.1 3.2-12.8 3.3-5.6 8.9-8.8 5.7-3.1 12.7-3.1 7 0 12.7 3.1 5.6 3.2 8.8 8.8 3.2 5.7 3.2 12.8 0 7.1-3.2 12.8-.7 1.4-1.7 2.6-1 1.3-2.1 2.4-1.1 1.1-2.4 2.1-1.2 1-2.6 1.7-5.7 3.2-12.7 3.2-7 0-12.7-3.2zm22-5q4.1-2.3 6.5-6.7 2.3-4.3 2.3-9.9 0-5.5-2.3-9.9-2.4-4.3-6.5-6.7-4.1-2.4-9.3-2.4-5.2 0-9.3 2.4-4.1 2.4-6.5 6.7-2.3 4.4-2.3 9.9 0 5.6 2.3 9.9 2.4 4.4 6.5 6.7 4.1 2.4 9.3 2.4 5.2 0 9.3-2.4zm66.7-40.9l-21.6 48.7h-6.8l-21.6-48.7h6.9l18.2 41.4 18.4-41.4zm47 4.9q5.4 5.3 5.4 15.5v28.3h-6.5v-27.6q0-7.6-3.8-11.6-3.8-4-10.9-4-7.8 0-12.4 4.7-4.6 4.7-4.6 12.9v25.6h-6.6v-48.7h6.3v8.9q2.7-4.4 7.5-6.9 4.8-2.4 11-2.4 9.2 0 14.6 5.3zm53.3-.5q5.1 4.7 5.1 14.1v30.2h-6.3v-7.6q-2.2 3.8-6.5 5.9-4.3 2.1-10.2 2.1-8.2 0-13-3.9-4.8-3.8-4.8-10.2 0-6.2 4.5-10 4.5-3.8 14.3-3.8H711v-3q0-6.3-3.5-9.6-3.5-3.3-10.3-3.3-1.1 0-2.2.1-1.2.1-2.3.3-1.1.2-2.2.5-1.1.3-2.2.7-4.2 1.5-7.3 4.2l-2.9-4.9q3.7-3.2 8.9-4.9 5.1-1.7 10.9-1.7 9.5 0 14.6 4.8zm-7.4 37q4-2.6 5.9-7.4v-7.9h-15.2q-12.5 0-12.5 8.7 0 4.2 3.2 6.7 3.2 2.4 9.1 2.4 5.5 0 9.5-2.5z"/></g></g></svg>