<svg xmlns="http://www.w3.org/2000/svg" viewBox="355.89 284.26 130.34 26.93"><defs><clipPath id="A"><path transform="matrix(1 0 0 -1 0 595.28)" d="M0 595.28H841.89V0H0Z"/></clipPath></defs><g clip-path="url(#A)" fill="#ef4023"><path d="M460.27 306.758l-.295.747-.277-.771-.485-1.176h-1.464-.237-1.527l-1.223 2.558 1.391 2.981h1.875l-1.733-3.004 1.331-2.32 1.595 3.011v2.313h1.453v-2.344l1.774-3.195h-1.694zm-26.771 1.24h-.414v-1.272h.494c.342 0 .571.086.571.548 0 .605-.205.724-.651.724m-.032-2.44h-1.803v5.539h1.421v-1.972h.446c1.813 0 2.169-1.023 2.169-1.843 0-1.263-.826-1.724-2.233-1.724m-33.486 4.466c-.294 0-.524-.135-.707-.349-.231-.271-.272-.708-.272-1.622 0-.652.088-.939.359-1.217.142-.151.374-.215.62-.215.302 0 .58.104.827.295l.604-1.049c-.254-.246-.851-.405-1.415-.405-.97 0-1.772.389-2.242 1.255-.269.501-.38 1.026-.38 1.717 0 .787.199 1.511.634 1.995.51.556 1.13.763 1.813.763.81 0 1.375-.238 1.724-.564l-.611-.969c-.31.278-.597.365-.954.365"/><path d="M399.909 304.222l-1.104-.557-.446.739 1.502.946 1.519-.946-.398-.739zm29.019 4.561h1.383v-1.127h-1.383v-.931h1.693l.104-1.168h-3.218v5.539h3.321v-1.183h-1.9zm-10.006-4.989l-1.732.961.436.698 1.836-.763zm5.396 4.06h-.405v-1.129h.397c.446 0 .66.127.66.525 0 .374-.166.604-.652.604m1.082.834c.65-.111 1.152-.595 1.152-1.55 0-.922-.525-1.581-2.154-1.581h-1.907v5.539h1.422v-2.193c.309 0 .436.071.651.644l.582 1.549h1.644l-.834-1.812c-.136-.286-.366-.54-.556-.596m-7.433.095h1.385v-1.127h-1.385v-.931h1.694l.104-1.168h-3.219v5.539h3.321v-1.183h-1.9zm-9.052-1.151l-.563-.144c-.414-.102-.541-.286-.541-.468 0-.223.198-.399.564-.399.381 0 .874.145 1.247.391l.684-1.009c-.493-.343-1.207-.54-1.979-.54-1.24 0-2.145.731-2.145 1.826 0 .954.547 1.401 1.35 1.607l.653.167c.38.095.555.207.555.454 0 .302-.221.508-.779.508-.564 0-1.16-.214-1.558-.446l-.5 1.114c.556.293 1.208.5 2.042.5 1.439 0 2.424-.7 2.424-2.027 0-1.112-.857-1.384-1.454-1.534m41.801 3.464h1.454v-5.539h-1.454z"/><path d="M443.657 309.913h-.541v-1.098h.524c.439 0 .527.247.527.526 0 .342-.152.572-.51.572m-.541-3.188h.549c.334 0 .477.152.477.437s-.119.526-.461.526h-.565zm1.67 1.416c.612-.199.817-.723.817-1.225 0-1.017-.65-1.358-1.453-1.358h-2.455v5.539h2.248c1.264 0 1.86-.699 1.86-1.708 0-.668-.477-1.106-1.017-1.248m-33.502 2.955h1.422v-5.539h-1.422zm-7.759-2.313h1.383v-1.127h-1.383v-.931h1.693l.103-1.168h-3.218v5.539h3.321v-1.183h-1.899zm49.798 2.313h1.422v-5.539h-1.422z"/><path d="M415.71 305.557h-1.764l-1.224 2.559 1.39 2.98h1.876l-1.732-3.004zm23.449 3.641c0 .54-.144.826-.652.826-.501 0-.661-.341-.661-.849v-3.618h-1.429v3.768c0 .739.055.882.27 1.177.325.461.937.69 1.812.69 1.097 0 1.708-.429 1.946-.89.111-.222.136-.437.136-.913v-3.832h-1.422zm8.997-3.641h-1.438v5.539h3.051l.27-1.175h-1.883zm35.242-6.259l.223-.906.152-.85a4.3 4.3 0 0 0 .103.747l.239 1.009zm1.153-3.378h-1.477l-1.781 5.539h1.494l.301-1.065h1.312l.287 1.065h1.541zm-87.257 4.57v.969h3.784l.112-1.183h-1.591c-.206 0-.477.016-.604.048a1.48 1.48 0 0 0 .255-.294l1.907-3.117v-.993h-3.592l-.104 1.168h1.439c.183 0 .429-.008.548-.04-.079.071-.214.294-.318.468zm61.362-.104c-.564 0-1.16-.214-1.559-.445l-.5 1.112c.557.294 1.208.501 2.042.501 1.439 0 2.425-.699 2.425-2.025 0-1.115-.858-1.385-1.455-1.536l-.563-.143c-.414-.103-.541-.286-.541-.469 0-.223.198-.398.565-.398a2.43 2.43 0 0 1 1.246.39l.684-1.008c-.492-.343-1.207-.541-1.979-.541-1.24 0-2.145.73-2.145 1.828 0 .953.548 1.399 1.35 1.605l.653.167c.381.096.556.207.556.453 0 .303-.222.509-.779.509"/><path d="M460.309 294.639l-.438-.738-1.072.555-1.105-.555-.405.738 1.534 1.073zm4.825.127l-.397-.738-1.075.555-1.103-.555-.446.738 1.502.946zm-9.451 1.154h-1.454v5.539h1.454zm-47.103 1.168h.398c.446 0 .661.127.661.525 0 .374-.167.604-.653.604h-.406zm0 2.178c.311 0 .438.071.653.643l.58 1.55h1.645l-.834-1.812c-.135-.286-.366-.54-.556-.596.651-.111 1.151-.595 1.151-1.55 0-.922-.524-1.581-2.153-1.581h-1.907v5.539h1.421zm65.186-1.105c-.104.286-.207.636-.294 1.081h-.008c-.087-.493-.159-.699-.262-1.041l-.7-2.281h-1.566l1.885 5.539h1.279l1.955-5.539h-1.502zm5.595-.525l.049 1.24c-.135-.374-.303-.762-.461-1.056l-1.012-1.901h-1.365v5.539h1.351v-1.556c0-.685-.048-1.193-.081-1.408a8.51 8.51 0 0 0 .431 1.041l.978 1.923h1.462v-5.539h-1.352zm-42.595 3.823h1.454v-5.539h-1.454zm1.351-7.303l-1.732.961.437.698 1.836-.763zm-5.334 5.746c0-.685-.047-1.192-.08-1.407.119.357.287.755.431 1.041l.977 1.923h1.463v-5.539h-1.352v1.716l.049 1.241c-.135-.374-.302-.763-.461-1.057l-1.011-1.9h-1.367v5.539h1.351zm-6.047-2.807h1.287v4.363h1.438v-4.363h1.288l.167-1.176h-4.18zm15.848-.007h.492c.343 0 .574.087.574.549 0 .604-.207.723-.654.723h-.412zm0 2.4h.445c1.812 0 2.17-1.024 2.17-1.844 0-1.263-.826-1.724-2.233-1.724h-1.804v5.539h1.422zm5.652.946c-.59 0-.932-.35-.932-1.765 0-1.057.272-1.733.915-1.733.613 0 .884.334.884 1.718 0 1.423-.263 1.78-.867 1.78m.022-4.609c-1.461 0-2.543 1.031-2.543 3.004 0 1.662.89 2.725 2.497 2.725 1.979 0 2.479-1.485 2.479-3.076 0-1.216-.549-2.653-2.433-2.653m3.363 4.656c0 1.001-.047 1.319-.73 1.788l.652.7c.777-.279 1.533-.922 1.533-1.884v-5.166h-1.455zm9.96-3.386h1.288v4.363h1.438v-4.363h1.287l.167-1.176h-4.18zm-57.618 3.181h-.478v-3.188h.438c.431 0 .756.167.756 1.455 0 1.534-.318 1.733-.716 1.733m1.375-4.015c-.445-.309-.937-.341-1.32-.341h-1.953v5.539h2.009c.748 0 1.193-.246 1.542-.667.501-.596.628-1.343.628-2.203 0-1.128-.278-1.891-.906-2.328m17.652 2.409c0-1.058.271-1.733.916-1.733.611 0 .881.334.881 1.717 0 1.423-.262 1.781-.865 1.781-.589 0-.932-.35-.932-1.765m3.387-.191c0-1.216-.549-2.654-2.432-2.654-1.463 0-2.543 1.032-2.543 3.004 0 1.662.89 2.726 2.496 2.726 1.979 0 2.479-1.486 2.479-3.076"/><path d="M413.708 299.298l.222-.906.151-.85c.008.206.048.516.105.747l.237 1.009zm-.326-3.378l-1.781 5.539h1.495l.302-1.065h1.311l.286 1.065h1.542l-1.677-5.539zm5.611 2.241c-.104.286-.206.636-.294 1.081h-.008c-.087-.493-.159-.699-.262-1.041l-.699-2.281h-1.566l1.884 5.539h1.279l1.956-5.539h-1.503zm49.368 2.273c-.59 0-.932-.35-.932-1.765 0-1.057.272-1.733.915-1.733.613 0 .884.334.884 1.718 0 1.423-.263 1.78-.867 1.78m.023-4.609c-1.462 0-2.543 1.031-2.543 3.004 0 1.662.889 2.725 2.496 2.725 1.979 0 2.479-1.485 2.479-3.076 0-1.216-.549-2.653-2.432-2.653m-39.829-3.908c.812 0 1.375-.239 1.726-.563l-.613-.971a1.3 1.3 0 0 1-.953.366c-.295 0-.525-.135-.709-.35-.229-.27-.269-.707-.269-1.622 0-.652.087-.938.357-1.215.144-.152.373-.216.621-.216a1.32 1.32 0 0 1 .825.295l.605-1.049c-.254-.247-.85-.404-1.414-.404-.971 0-1.773.388-2.241 1.254-.271.5-.381 1.025-.381 1.717 0 .787.198 1.511.634 1.995.508.556 1.128.763 1.812.763m-28.788-3.394c-.104.286-.207.636-.294 1.081h-.008c-.089-.493-.159-.699-.263-1.041l-.699-2.281h-1.566l1.884 5.539h1.28l1.955-5.539h-1.502zm6.279-3.521l-.438-.738-1.073.555-1.104-.555-.406.738 1.535 1.072z"/><path d="M439.342 285.415l-.541-.897-1.732.961.437.699zm-1.519 4.245l.224-.906.15-.835c.008.207.047.509.104.732l.237 1.009zm-.326-3.378l-1.78 5.539h1.494l.302-1.065h1.312l.286 1.065h1.542l-1.677-5.539zm-23.558 1.016c.612 0 .883.334.883 1.719 0 1.423-.263 1.78-.867 1.78-.589 0-.931-.35-.931-1.765 0-1.057.271-1.734.915-1.734m-.008 4.619c1.979 0 2.48-1.485 2.48-3.076 0-1.217-.549-2.653-2.432-2.653-1.463 0-2.543 1.031-2.543 3.004 0 1.661.889 2.725 2.495 2.725m-2.934-1.279h-1.899v-1.131h1.382v-1.128h-1.382v-.93h1.692l.103-1.167h-3.217v5.539h3.321zm-6.604.111c-.564 0-1.16-.215-1.559-.445l-.5 1.112c.557.294 1.208.501 2.042.501 1.44 0 2.425-.699 2.425-2.026 0-1.114-.858-1.384-1.454-1.535l-.564-.143c-.414-.104-.541-.286-.541-.469 0-.223.199-.398.565-.398.381 0 .874.143 1.247.39l.683-1.008c-.492-.343-1.207-.541-1.978-.541-1.24 0-2.146.73-2.146 1.828 0 .953.548 1.398 1.351 1.605l.652.167c.381.095.556.207.556.453 0 .302-.222.509-.779.509m21.277-.111h-1.9v-1.131h1.383v-1.128h-1.383v-.93h1.693l.103-1.167h-3.218v5.539h3.322zm6.637-.374c0-.685-.047-1.193-.08-1.407.119.357.287.755.43 1.041l.978 1.923h1.461v-5.539h-1.35v1.716l.049 1.24c-.135-.373-.303-.763-.463-1.057l-1.009-1.899h-1.367v5.539h1.351z"/><path d="M418.746 290.638v-1.099h.525c.438 0 .527.247.527.526 0 .342-.153.573-.511.573zm0-3.189h.55c.334 0 .477.152.477.437s-.12.525-.462.525h-.565zm2.688 2.664c0-.668-.478-1.106-1.018-1.248.612-.2.818-.723.818-1.225 0-1.018-.651-1.358-1.453-1.358h-2.456v5.539h2.249c1.264 0 1.86-.7 1.86-1.708m-45.559 12.845h-4.699l-2.312 4.081 2.224 4.153h4.713l-2.209-4.109z"/><path d="M377.599 302.958l-1.886 3.241h7.704l-9.707-15.997-12.269 20.99h3.858l8.441-14.523zm.117-15.009c-.265-.339-1.148-2.269-4.006-2.269-2.917 0-3.859 2.003-4.198 2.534-.354.531-13.625 22.964-13.625 22.964l3.785.014 12.741-21.462c.766-1.177 2.018-.764 2.403-.161l9.971 16.233c.176.293.265.838-.045 1.414-.294.558-.825.707-1.207.707h-7.851l1.915 3.269h6.274c.604 0 2.402-.251 3.786-2.017 1.679-2.152.147-4.774-.147-5.215-.31-.456-9.545-15.672-9.796-16.011"/></g></svg>