<svg xmlns="http://www.w3.org/2000/svg" viewBox="1 0.4 542.7 128.9" xmlns:v="https://vecta.io/nano"><defs><clipPath id="A"><path d="M-164-221h841.89v595.28H-164z"/></clipPath></defs><g clip-path="url(#A)"><g fill-rule="evenodd" fill="#005496"><path d="M133.4 26.4q-.3.6-.3 1.4 0 2.4 3.4 2.4h9.8q3.5 0 3.5-2.3 0-2.2-3.5-2.2h-6.9l8.6-11.5q.7-1.1 1.1-1.7.3-.6.3-1.3 0-1.3-1.1-1.8-1-.6-3.1-.6h-8.3q-3.5 0-3.5 2.2 0 1.2.9 1.7.8.5 2.6.5h6.3l-8.7 11.6q-.8 1-1.1 1.6zm19.1 3.5q.7.3 2 .3h4.5q2.4 0 4.4-.8 1.9-.7 3.2-2.2 1.4-1.4 2.1-3.4.7-2 .7-4.5 0-.4 0-.7 0-.4-.1-.7 0-.4-.1-.7 0-.4-.1-.7-.1-.4-.2-.7-.1-.3-.2-.6-.1-.3-.2-.6-.2-.3-.3-.6-.1-.3-.3-.6-.2-.2-.3-.5-.2-.3-.4-.5-.2-.3-.4-.5-.9-.9-1.9-1.6-2.4-1.5-6.4-1.5h-3.9q-1.3 0-2.1.4-.7.3-1 1.1-.3.7-.3 1.9v14.9q0 1.2.3 1.9.3.6 1 .9zm3.6-16.6h2.1q5.9 0 5.9 5.9 0 6.5-5.8 6.5h-2.2zm31.4 2.1q0-3-2.1-4.8-2.2-1.9-6.1-1.9h-3.7q-1.4 0-2.1.4-.2.1-.3.2-.2.1-.3.3-.2.1-.3.3-.1.1-.1.3-.3.7-.3 2V27q0 1.7.6 2.6.6.8 1.8.8 2.5 0 2.5-3.4v-5.3l5.7 7.1q.7.9 1.3 1.3.6.5 1.3.5 1 0 1.6-.7.7-.7.7-1.6 0-1.2-1.5-2.8l-3.8-4.3q2.4-.4 3.8-1.9 1.3-1.6 1.3-3.9zm-5.9 2.3q-.8.7-2.3.7h-2.2v-5.2h2.3q1 0 1.6.3.7.3 1.1.9.3.6.3 1.4 0 1.2-.8 1.9zm7.8 12.5q.5.2 1.2.2 1.6 0 2.3-2.1l.8-2.2h7.9l.6 2q.3 1.2 1 1.8.6.6 1.5.6 1 0 1.7-.7.7-.6.7-1.6 0-.6-.3-1.6l-5.4-15.3q-.5-1.4-1.4-2.1-.9-.8-2.2-.8-1.3 0-2.2.8-.9.8-1.5 2.4l-5.6 15.1q-.2.6-.2 1.4 0 .7.3 1.2 0 .2.1.3.1.1.2.2.1.1.2.2.2.1.3.2zm8.3-16.5l2.5 7.9H195zm16.4 16.1q.3.4.8.6.4.2 1 .2.9 0 1.4-.5.6-.4 1-1.5l6.3-16.1q.4-.8.4-1.7 0-1-.7-1.6-.6-.6-1.7-.6-.9 0-1.4.5-.6.5-1 1.8L216 22.8l-4.5-12.1q-.4-1.1-.9-1.6-.5-.5-1.3-.5-1.1 0-1.8.7-.2.1-.4.3-.1.2-.2.5-.1.2-.1.4-.1.3-.1.5 0 .2.1.4 0 .1 0 .3 0 .2.1.4 0 .1.1.3l6.5 16.4q.3.6.6 1zm17.4.2q2 .8 4.3.8 2.4 0 4.3-.8 1.9-.8 3.3-2.3 1.4-1.5 2.2-3.6.7-2.1.7-4.6 0-2.5-.7-4.6-.8-2.1-2.2-3.6-1.4-1.5-3.3-2.3-2-.8-4.3-.8-2.3 0-4.2.8-.5.2-1 .4-.4.3-.8.6-.5.2-.8.6-.4.3-.8.7-1.4 1.5-2.1 3.6-.8 2.1-.8 4.6 0 2.5.8 4.6.7 2.1 2.1 3.6.3.4.7.7.4.3.8.6.4.3.9.6.4.2.9.4zm.5-15.4q1.5-1.8 3.8-1.8 1.6 0 2.7.8 1.2.8 1.9 2.3.6 1.6.6 3.7 0 1.9-.6 3.4-.7 1.5-1.9 2.3-1.2.9-2.7.9-1.5 0-2.7-.9-1.2-.8-1.8-2.3-.7-1.5-.7-3.4 0-3.2 1.4-5zm20.5 15q.6.8 1.8.8 2.4 0 2.4-3.4V13.3h1.8q3.5 0 3.5-2.2 0-2.3-3.5-2.3H250q-3.4 0-3.4 2.3 0 2.2 3.4 2.2h1.8V27q0 1.7.7 2.6zm13.2.8q2.5 0 2.5-3.4v-9.9l8.8 11.7q1.3 1.8 2.8 1.8 1.1 0 1.7-.8.5-.7.5-2.3V12q0-3.5-2.4-3.5-2.5 0-2.5 3.5v10l-9-11.9q-.6-.8-1.2-1.2-.6-.4-1.4-.4-2.2 0-2.2 3.3V27q0 1.8.6 2.6.6.8 1.8.8zm20.2-3.4q0 1.8.6 2.6.6.8 1.9.8 2.4 0 2.4-3.4V12q0-3.5-2.4-3.5-2.5 0-2.5 3.5zm3.3-20.6l2.3-2.5q.7-.9.7-1.7 0-.8-.5-1.3-.2-.1-.3-.2-.2-.1-.3-.2-.2 0-.4-.1-.2 0-.4 0-1 0-1.7 1l-2.2 3q-.5.6-.5 1.3 0 .7.5 1.2.4.4 1.1.5.8 0 1.7-1zM137.7 62.7q2.4 0 2.4-3.4v-3.7h3.3q2.4 0 4-.9 1.7-.8 2.6-2.5.8-1.6.9-3.8 0-2.2-1-3.9-.9-1.6-2.7-2.5-1.7-.9-4.2-.9h-4.4q-1.3 0-2 .3-.8.4-1.1 1.1-.2.8-.2 2v14.8q0 1.8.6 2.6.6.8 1.8.8zm2.4-17.1h2.1q1.7 0 2.5.6.9.7.9 2.2 0 1.4-.9 2.1-.8.7-2.5.7h-2.1zm18.5 16.7q1.9.8 4.3.8 2.3 0 4.3-.8 1.9-.8 3.3-2.3 1.4-1.5 2.2-3.6.7-2.1.7-4.6 0-2.5-.7-4.6-.8-2.1-2.2-3.6-1.4-1.5-3.4-2.3-1.9-.8-4.2-.8-2.3 0-4.3.8-1.9.8-3.3 2.3-1.4 1.5-2.2 3.6-.7 2.1-.7 4.6 0 2.5.7 4.6.8 2.1 2.2 3.6.3.4.7.7.4.4.8.7.4.2.9.5.4.2.9.4zm.5-15.3q1.4-1.9 3.8-1.9 1.5 0 2.7.8 1.2.9 1.8 2.4.7 1.5.7 3.6 0 2-.7 3.5-.6 1.5-1.8 2.3-1.2.8-2.7.8-1.5 0-2.7-.8-1.2-.8-1.8-2.3-.7-1.5-.7-3.5 0-3.1 1.4-4.9zm17.6 15.6q1.3.5 2.9.5 2 0 3.4-.8 1.5-.8 2.2-2.4.7-1.6.7-3.9V44.3q0-3.5-2.5-3.5-2.4 0-2.4 3.5v10.1q0 2.1-.3 3.1-.4.9-1.3.9-.5 0-1.4-.5-1-.6-1.7-.6-1 0-1.6.7-.6.6-.6 1.6 0 .9.7 1.7.7.8 1.9 1.3zm15.5.2q2.4 0 2.4-3.5v-15q0-3.5-2.4-3.5-2.4 0-2.4 3.5v15q0 1.8.6 2.6.5.9 1.8.9zm12.8-4.3q-1.1 0-2.9-.5-1.7-.5-2.3-.5-.7 0-1.3.2-.5.3-.8.8-.3.5-.3 1.2 0 .8.9 1.6.9.8 2.5 1.3 1.6.5 3.5.5 2.5 0 4.4-.9 1.9-1 2.9-2.6 1-1.6 1-3.7 0-1.6-.6-2.8-.7-1.2-2-2.1-1.3-.9-3.3-1.6l-1.6-.6q-.8-.2-1.3-.5-.4-.2-.7-.5-.2-.4-.3-.9 0-.8.7-1.4.6-.5 1.7-.5.7 0 2 .4 1.3.4 1.9.4 1 0 1.6-.6.5-.5.5-1.5 0-1.3-1.6-2.2-1.6-1-4.2-1-2.3 0-4.1.9-1.7.9-2.7 2.5-1 1.5-1 3.4 0 2.4 1.5 3.8 1.4 1.3 4.6 2.3l2.1.7q.8.4 1.2.9.4.5.4 1.3 0 .3 0 .5-.1.2-.1.4-.1.2-.3.4-.1.2-.3.3-.6.6-1.7.6zm-4.3-22L204 39q.6.5 1.3.5.6 0 1.2-.5l3.3-2.5q.5-.4.7-.8.2-.3.2-.8 0-.7-.4-1.2-.4-.4-1-.4-.6 0-1.4.5l-2.6 1.5-2.7-1.5q-.8-.5-1.4-.5-.6 0-1 .4-.4.5-.4 1.2 0 .5.2.8.3.4.7.8zm11.9 6.9q0 2.3 3.5 2.3h1.8v13.6q0 1.8.6 2.6.6.9 1.8.9 2.5 0 2.5-3.5V45.7h1.8q3.4 0 3.4-2.3 0-2.3-3.4-2.3h-8.5q-3.5 0-3.5 2.3zm3.7-6.9l3.2 2.5q.6.5 1.3.5.6 0 1.2-.5l3.3-2.5q.9-.7.9-1.6 0-.7-.4-1.2-.4-.4-1-.4-.6 0-1.4.5l-2.6 1.5-2.6-1.5q-.9-.5-1.4-.5-.6 0-1 .4-.4.5-.4 1.2 0 .5.2.8.2.4.7.8zm18.2 25.8q1.9.8 4.3.8 2.3 0 4.3-.8 1.9-.8 3.3-2.3 1.4-1.5 2.2-3.6.7-2.1.7-4.6 0-2.5-.8-4.6-.7-2.1-2.1-3.6-1.4-1.5-3.4-2.3-1.9-.8-4.2-.8-2.3 0-4.3.8-.5.2-.9.5-.5.2-.9.5-.4.3-.8.6-.4.4-.7.7-1.4 1.5-2.2 3.6-.7 2.1-.7 4.6 0 2.5.7 4.6.8 2.1 2.2 3.6.3.4.7.7.4.4.8.7.4.2.9.5.4.2.9.4zM235 47q1.4-1.9 3.8-1.9 1.5 0 2.7.8 1.2.9 1.8 2.4.7 1.5.7 3.6 0 2-.7 3.5-.6 1.5-1.8 2.3-1.2.8-2.7.8-1.5 0-2.7-.8-1.2-.8-1.9-2.3-.6-1.5-.6-3.5 0-3.1 1.4-4.9zm22.1 15.2q.1.1.2.1.1.1.2.2.1.1.2.1.1.1.2.2.4.1 1 .1.9 0 1.4-.4.6-.5 1-1.6l6.4-16q.3-.9.3-1.7 0-1.1-.6-1.7-.7-.6-1.8-.6-.9 0-1.4.5-.5.5-1 1.8l-4.2 12-4.5-12.2q-.4-1.1-.9-1.6-.5-.5-1.3-.5-1.1 0-1.8.7-.7.7-.7 1.7 0 .2 0 .4 0 .2 0 .3.1.2.1.4.1.2.1.3l6.6 16.4q.2.7.5 1.1zm14.7.6q2.5 0 2.5-3.5v-9.8l8.8 11.6q1.3 1.8 2.8 1.8 1.1 0 1.7-.7.5-.8.5-2.3V44.3q0-3.5-2.4-3.5-2.5 0-2.5 3.5v10l-9-11.9q-.6-.8-1.2-1.1-.6-.4-1.4-.4-2.2 0-2.2 3.2v15.2q0 1.8.6 2.6.6.9 1.8.9zm19.3-.3q.6.3 1.2.3 1.6 0 2.4-2.1l.7-2.2h7.9l.6 2q.4 1.2 1 1.8.6.6 1.6.6 1 0 1.7-.7.7-.6.7-1.6 0-.6-.4-1.6l-5.4-15.4q-.5-1.3-1.4-2.1-.9-.7-2.2-.7-1.3 0-2.2.8-.9.8-1.5 2.4l-5.6 15.1q-.2.6-.2 1.4 0 .2 0 .3 0 .2.1.3 0 .2.1.3 0 .2.1.3.1.1.2.3 0 .1.2.2.1.1.2.2.1.1.2.1zm8.3-16.4l2.5 7.9h-5.1zM137.8 94.4q.6-.8.9-2.4l1.6-12.5 3.2 13.2q.3 1.4 1 1.9.7.6 1.9.6.7 0 1.2-.2.1-.1.2-.1.2-.1.3-.2.1-.1.1-.2.1-.1.2-.2.3-.6.9-2.3l1.3-4.9 1.8-7.6 1.5 12.8q.4 2.9 2.4 2.9 1.1 0 1.8-.7.7-.7.7-1.9 0-.5-.1-1.2l-2.4-14.7q-.2-1.2-.6-2-.4-.8-1.1-1.1-.7-.4-1.7-.4-2.7 0-3.4 2.9l-3 12.8-3.3-12.8q-.7-2.9-3.4-2.9-1 0-1.7.4-.1.1-.3.2-.1.1-.3.2-.1.2-.2.3-.1.2-.2.3-.4.8-.6 1.9l-2.6 14.6q-.2.9-.2 1.5 0 1.2.7 1.9.6.6 1.7.6 1.1 0 1.7-.7zm25.9.7q2.4 0 2.4-3.4v-15q0-3.5-2.4-3.5-2.5 0-2.5 3.5v15q0 1.7.6 2.6.6.8 1.9.8zm8.8 0q2.4 0 2.4-3.4v-9.9l8.8 11.7q1.4 1.8 2.8 1.8 1.2 0 1.7-.8.6-.7.6-2.3V76.7q0-3.5-2.5-3.5-2.4 0-2.4 3.5v10l-9-11.9q-.6-.8-1.2-1.2-.6-.4-1.4-.4-2.3 0-2.3 3.3v15.2q0 1.7.6 2.6.6.8 1.9.8zm22.6 0q2.4 0 2.4-3.4v-15q0-3.5-2.4-3.5-2.4 0-2.4 3.5v15q0 1.7.6 2.6.5.8 1.8.8zm12.8-4.2q-1.1 0-2.9-.5-1.7-.6-2.3-.6-.7 0-1.3.3-.5.3-.8.8-.3.5-.3 1.1 0 .9.9 1.7.9.8 2.5 1.2 1.6.5 3.5.5 2.5 0 4.4-.9 1.9-.9 2.9-2.5 1-1.7 1-3.8 0-1.6-.6-2.8-.7-1.2-2-2.1-1.3-.9-3.3-1.6l-1.6-.5q-.8-.3-1.3-.5-.5-.2-.7-.6-.3-.3-.3-.9 0-.8.7-1.3.6-.5 1.7-.5.7 0 2 .4 1.3.3 1.8.3 1.1 0 1.7-.5.5-.6.5-1.5 0-1.4-1.6-2.3-1.6-.9-4.2-.9-2.3 0-4.1.9-1.7.9-2.7 2.4-1 1.6-1 3.5 0 2.4 1.5 3.7 1.4 1.4 4.6 2.3l2.1.8q.8.3 1.2.8.4.6.4 1.4 0 .9-.7 1.6-.6.6-1.7.6zm13.5 3.4q.6.8 1.8.8 2.5 0 2.5-3.4V78h1.8q3.4 0 3.4-2.2 0-2.3-3.4-2.3H219q-3.5 0-3.5 2.3 0 2.2 3.5 2.2h1.8v13.7q0 1.7.6 2.6zM241.1 78q3.5 0 3.5-2.3 0-2.3-3.5-2.3h-5.5q-1.3 0-2 .4-.8.4-1 1.1-.3.7-.3 2v14.9q0 1.2.3 1.8.3.7 1 .9.7.3 2 .3h5.7q3.4 0 3.4-2.2 0-2.3-3.4-2.3h-4.2v-4h3.5q3.4 0 3.4-2.2 0-2.3-3.4-2.3h-3.5V78zm21.7 2.1q0-3-2.1-4.8-2.2-1.9-6-1.9h-3.8q-1.4 0-2.1.4-.7.4-1 1.1-.3.7-.3 2v14.7q0 1.8.6 2.7.6.8 1.8.8 2.5 0 2.5-3.5v-5.2l5.7 7.1q.7.9 1.3 1.3.6.5 1.3.5 1 0 1.6-.7.7-.7.7-1.6 0-1.2-1.5-2.8l-3.8-4.3q2.4-.4 3.8-2 1.3-1.5 1.3-3.8zm-5.9 2.3q-.8.7-2.3.7h-2.2v-5.2h2.3q1 0 1.6.3.7.3 1.1.9.3.6.3 1.4 0 1.2-.8 1.9zm15 8.5q-1.1 0-2.8-.6-1.8-.5-2.4-.5-.7 0-1.2.2-.6.3-.9.8-.3.5-.3 1.2 0 .9.9 1.6.9.8 2.5 1.3 1.6.5 3.5.5 2.5 0 4.4-.9 1.9-.9 2.9-2.6 1-1.6 1-3.7 0-1.6-.6-2.8-.6-1.2-2-2.1-1.3-.9-3.2-1.6l-1.7-.5q-.8-.3-1.2-.5-.5-.3-.8-.6-.2-.4-.2-.9 0-.8.6-1.3.6-.6 1.7-.6.7 0 2 .4 1.4.4 1.9.4 1 0 1.6-.6.6-.5.6-1.5 0-1.3-1.6-2.2-1.6-.9-4.3-.9-2.3 0-4 .8-1.8.9-2.8 2.5-.9 1.5-.9 3.4 0 2.5 1.4 3.8 1.4 1.4 4.6 2.3l2.1.8q.8.3 1.2.8.4.5.4 1.4 0 .9-.6 1.5-.7.7-1.8.7zm13.5 3.3q.6.9 1.8.9 2.5 0 2.5-3.5V78h1.8q3.5 0 3.5-2.3 0-2.3-3.5-2.3H283q-3.5 0-3.5 2.3 0 2.3 3.5 2.3h1.8v13.6q0 1.8.6 2.6z"/><path d="M301.3 94.5q.3.4.7.6.5.2 1 .2.9 0 1.5-.5.6-.5 1-1.6l6.3-16q.1-.2.2-.4 0-.2.1-.5 0-.2 0-.4.1-.2.1-.4 0-1.1-.7-1.7-.6-.6-1.7-.6-.9 0-1.5.5-.5.6-.9 1.8l-4.2 12-4.5-12.2q-.4-1.1-.9-1.6-.5-.5-1.3-.5-1.1 0-1.9.7-.7.7-.7 1.8 0 .1 0 .3.1.2.1.4 0 .1.1.3 0 .2.1.4l6.5 16.3q.3.7.6 1.1zm11.5.3q.5.3 1.2.3 1.6 0 2.3-2.1l.7-2.2h8l.6 2q.3 1.2 1 1.8.6.6 1.5.6 1 0 1.7-.7.7-.6.7-1.6 0-.6-.3-1.6L324.8 76q-.5-1.4-1.4-2.1-1-.8-2.2-.8-1.3 0-2.2.8-1 .8-1.5 2.4l-5.6 15.1q-.2.6-.2 1.4 0 .2 0 .3 0 .2 0 .3.1.2.1.3.1.2.2.3.3.6.8.8zm8.3-16.4l2.4 7.9h-5.1zm-180.7 48.4q.3.4.7.6.4.2 1 .2.9 0 1.5-.5.5-.4 1-1.5l6.3-16.1q.1-.2.1-.4.1-.2.1-.4.1-.2.1-.4 0-.3 0-.5 0-1-.6-1.6-.7-.6-1.8-.6-.9 0-1.4.5-.5.5-1 1.8l-4.2 11.9-4.5-12.1q-.4-1.1-.9-1.6-.5-.5-1.3-.5-1.1 0-1.8.7-.7.7-.7 1.7 0 .7.3 1.4l6.5 16.4q.3.7.6 1zm14.6.7q2.5 0 2.5-3.5v-9.8l8.8 11.6q1.3 1.8 2.8 1.8 1.2 0 1.7-.8.5-.7.5-2.3V109q0-3.5-2.4-3.5-2.5 0-2.5 3.5v10l-8.9-11.9q-.7-.8-1.3-1.2-.6-.4-1.3-.4-2.3 0-2.3 3.3V124q0 1.8.6 2.6.6.9 1.8.9zm22.7 0q2.4 0 2.4-3.5v-15q0-3.5-2.4-3.5-2.5 0-2.5 3.5v15q0 1.8.6 2.6.6.9 1.9.9zm9.7-.9q.6.9 1.8.9 2.5 0 2.5-3.5v-13.7h1.8q3.4 0 3.4-2.2 0-2.3-3.4-2.3H185q-3.5 0-3.5 2.3 0 2.2 3.5 2.2h1.8V124q0 1.7.6 2.6zm26.1-14.2q0-3-2.2-4.8-2.1-1.8-6-1.8h-3.8q-1.3 0-2 .3-.8.4-1.1 1.1-.2.7-.2 2V124q0 1.7.6 2.6.6.8 1.8.8 2.4 0 2.4-3.4v-5.3l5.7 7.1q.8.9 1.4 1.4.6.4 1.2.4 1 0 1.7-.7.7-.6.7-1.6 0-1.2-1.5-2.8l-3.8-4.3q2.4-.4 3.7-1.9 1.4-1.6 1.4-3.9zm-5.9 2.3q-.8.7-2.3.7H203v-5.2h2.4q.9 0 1.6.3.7.4 1 .9.4.6.4 1.4 0 1.2-.8 1.9zm7.8 12.5q.5.2 1.2.2 1.6 0 2.3-2.1l.7-2.2h7.9l.6 2q.4 1.2 1 1.8.7.6 1.6.6 1 0 1.7-.6.7-.7.7-1.7 0-.6-.3-1.5l-5.4-15.4q-.5-1.4-1.5-2.1-.9-.8-2.1-.7-1.4 0-2.3.7-.9.8-1.5 2.4l-5.5 15.1q-.3.6-.3 1.4 0 .7.3 1.2.1.2.2.3.1.1.2.2.1.1.2.2.1.1.3.2zm8.3-16.5l2.4 7.9H221zm24.6-9.6l3.2 2.6q.6.5 1.3.5.6 0 1.2-.5l3.3-2.6q.5-.3.7-.7.2-.4.2-.9 0-.7-.4-1.1-.4-.4-1-.4-.6 0-1.4.4l-2.6 1.6-2.6-1.6q-.9-.4-1.4-.4-.6 0-1 .4-.4.4-.4 1.1 0 .6.2.9.2.4.7.7zm-3.2 9.5q-1.4 2.6-1.4 5.9 0 2.6.8 4.6.7 2.1 2.1 3.6 1.4 1.5 3.3 2.3 2 .8 4.3.8 1.9 0 3.4-.5 1.6-.5 2.4-1.4.9-.8.9-1.8 0-.8-.6-1.5-.6-.6-1.3-.6-.5 0-2 .5-1.5.6-2.6.6-1.6 0-2.8-.8-1.2-.8-1.9-2.2-.7-1.5-.7-3.5 0-2 .7-3.5.6-1.5 1.8-2.3 1.2-.8 2.8-.8 1 0 2.4.4 1.4.4 1.9.4.8 0 1.4-.7.6-.6.6-1.5 0-.8-.8-1.6-.8-.8-2.3-1.3-1.5-.5-3.3-.5-2.9 0-5.3 1.4-2.4 1.4-3.8 4zm33.1 1.9q0-3-2.2-4.9-2.1-1.8-6-1.8h-3.8q-1.3 0-2 .4-.8.3-1.1 1-.2.8-.2 2V124q0 1.8.6 2.6.6.9 1.8.9 2.4 0 2.4-3.5v-5.3l5.7 7.2q.8.9 1.4 1.3.6.4 1.2.4 1 0 1.7-.6.2-.2.3-.4.1-.2.2-.4.1-.2.1-.4.1-.3.1-.5 0-1.2-1.5-2.8l-3.8-4.2q2.4-.5 3.7-2 1.4-1.5 1.4-3.8zm-5.9 2.3q-.8.7-2.3.7h-2.3v-5.2h2.4q.9 0 1.6.3.7.3 1 .9.4.5.4 1.3 0 1.3-.8 2zM12.8 126.9h94.5c1.5 0 3.1-.3 4.5-.9a12.25 12.25 0 0 0 6.4-6.4c.6-1.4.9-3 .9-4.5V20.6c0-1.6-.3-3.1-.9-4.5-.6-1.5-1.5-2.8-2.6-3.9s-2.4-1.9-3.8-2.5-3-.9-4.5-.9H12.8C6.3 8.8 1 14.1 1 20.6v94.5c0 1.5.3 3.1.9 4.5a12.25 12.25 0 0 0 2.6 3.8c1 1.1 2.3 2 3.8 2.6 1.4.6 2.9.9 4.5.9zm23.5-78.8H20.7c-4.4 0-7.9-3.5-7.9-7.8a7.85 7.85 0 0 1 7.9-7.9h47.2 7.9c17.3 0 31.5 14.1 31.5 31.5 0 17.3-14.2 31.5-31.5 31.5h-5.9c-2 0-2 2-2 2v9.8a7.92 7.92 0 0 1-7.9 7.9c-4.3 0-7.8-3.6-7.8-7.9v-9.8s0-2-2-2H20.7a7.92 7.92 0 0 1-7.9-7.9q0-.7.1-1.4.1-.7.4-1.3.2-.7.6-1.3.3-.6.8-1.1l23.4-31.2c.7-1 .4-3.1-1.8-3.1zm31.6 31.5h7.8c8.7 0 15.8-7.1 15.8-15.8 0-8.6-7.1-15.7-15.8-15.7H60.9c-.7 0-1.3.4-1.5.7L38.7 76.6c-.6.6-.6 3 1.8 3zM60 59.9a7.92 7.92 0 0 1 7.9 7.9c0 4.3-3.6 7.9-7.9 7.9a7.92 7.92 0 0 1-7.9-7.9 7.85 7.85 0 0 1 7.9-7.9z"/></g><path d="M341.3 108.6c-1.7 2-3.8 5-3.8 8.5 0 7.7 5.6 11.1 13 11.1h55.8c6.4 0 12.1-3.4 12.1-11.1s-5.7-11-13.1-11h-30.6c14.2-17.9 40.1-41 40.1-64.2 0-21.2-16.5-34.8-37.1-34.8-20.5 0-39.2 16.9-39.2 38 0 6.5 4.1 12.2 12.2 12.2 16 0 6.8-27.1 26-27.1 6.9 0 12.1 6 12.1 12.9 0 6-2.9 11.2-5.9 15.5-12.7 18.4-27.7 33.5-41.6 50zM466 129.3c7.1 0 13-5.8 13-13v-90V22c0-6.1-4.4-11.3-10.2-12.6-.3 0-.5-.1-.8-.2q-.2 0-.5-.1-.3 0-.5 0-.3 0-.5 0-.3-.1-.5-.1-1 0-1.9.2-.9.1-1.9.4-.9.3-1.7.7-.9.4-1.7.9c-1.4 1-34.5 23.8-34.5 23.8-1.2 1.2-2.2 2.6-2.8 4.2-.7 1.6-1 3.3-1 5s.3 3.4 1 4.9c.6 1.6 1.6 3 2.8 4.3 5.1 5 12 4.3 18.4 0L453 47v69.3c0 1.7.3 3.4 1 4.9.6 1.6 1.6 3.1 2.8 4.3s2.6 2.1 4.2 2.8c1.6.6 3.3 1 5 1zm64.7 0c1.7 0 3.4-.4 4.9-1 1.6-.7 3-1.6 4.2-2.8 1.3-1.2 2.2-2.7 2.9-4.3.6-1.5 1-3.2 1-4.9v-90V22c0-6.1-4.4-11.3-10.2-12.6-.3 0-.5-.1-.8-.2q-1-.1-2-.2-1 0-1.9.2-1 .1-1.9.4-.9.3-1.7.7-.9.4-1.7.9C522 12.2 489 35 489 35c-5.1 5-5.1 13.3 0 18.4 5.1 5 12 4.3 18.4 0l10.3-6.4v69.3c0 1.7.3 3.4 1 4.9.6 1.6 1.6 3.1 2.8 4.3s2.6 2.1 4.2 2.8c1.6.6 3.3 1 5 1z" fill="#005496"/></g></svg>