<svg version="1.2" xmlns="http://www.w3.org/2000/svg" viewBox="0.1 0.3 43.2 38.4"><style>.a{fill:#5aa6f2}.b{fill:#f5b689}</style><path class="a" d="m21.7 38.7l-0.5-0.3c0-0.1-5.3-3.7-10.5-8.7-3-2.9-5.5-5.7-7.3-8.4-2.2-3.4-3.3-6.6-3.3-9.4 0-6.4 5.2-11.6 11.5-11.6 2.4 0 4.7 0.8 6.7 2.1 1.4 1 2.6 2.3 3.4 3.8 0.8-1.5 2-2.8 3.4-3.8 2-1.3 4.3-2.1 6.7-2.1 6.3 0 11.5 5.2 11.5 11.6 0 2.8-1.1 5.9-3.4 9.4-1.8 2.6-4.2 5.5-7.3 8.4-5.1 5-10.4 8.6-10.4 8.7zm-10.1-36.8c-5.5 0-10 4.5-10 10 0 2.5 1.1 5.3 3.2 8.5 1.6 2.5 4 5.3 7 8.1 4.2 4.1 8.5 7.2 9.9 8.2 1.3-1 5.6-4.1 9.8-8.2 3-2.9 5.3-5.6 7-8.2 2.1-3.1 3.2-5.9 3.2-8.4 0-5.5-4.5-10-10-10-4.1 0-7.8 2.6-9.3 6.5l-0.7 1.9-0.8-1.9c-1.5-3.9-5.2-6.5-9.3-6.5z"></path><path class="b" d="m19.3 22.4q0.3-0.3 0.5-0.6c0.6-1.2 2.1-4.4 0.2-5.2-2.5-1.1-7.8-1.2-6.9 6.4 1 7.6 5.8 7.2 7.2 6.5 1.4-0.7 1.9-3.7-0.1-5-1.5-1-1.1-1.8-0.9-2.1z"></path><path class="b" d="m21.6 14.5q0 0.3-0.2 0.6-0.1 0.3-0.4 0.5-0.3 0.3-0.6 0.3-0.3 0.1-0.7 0.1-0.3 0-0.6-0.2-0.3-0.2-0.5-0.4-0.2-0.3-0.3-0.6-0.1-0.3-0.1-0.7 0-0.3 0.2-0.6 0.2-0.3 0.4-0.5 0.3-0.3 0.6-0.4 0.4 0 0.7 0 0.3 0 0.6 0.2 0.3 0.2 0.6 0.4 0.2 0.3 0.3 0.6 0.1 0.3 0 0.7z"></path><path class="b" d="m17.9 14.8q-0.1 0.2-0.2 0.4-0.1 0.1-0.2 0.3-0.2 0.1-0.4 0.1-0.1 0.1-0.3 0.1-0.2 0-0.4-0.1-0.2-0.1-0.3-0.3-0.1-0.1-0.2-0.3-0.1-0.2 0-0.4 0-0.2 0.1-0.4 0.1-0.2 0.2-0.3 0.2-0.1 0.4-0.2 0.2 0 0.4 0 0.2 0 0.3 0.1 0.2 0.1 0.3 0.3 0.2 0.1 0.2 0.3 0.1 0.2 0.1 0.4z"></path><path class="b" d="m15.7 15.7q0 0.3-0.3 0.6-0.3 0.2-0.6 0.2-0.4-0.1-0.6-0.4-0.3-0.2-0.2-0.6 0-0.4 0.3-0.6 0.3-0.3 0.7-0.2 0.3 0 0.6 0.3 0.2 0.3 0.1 0.7z"></path><path class="b" d="m14.1 17q0 0.3-0.3 0.6-0.3 0.2-0.6 0.1-0.4 0-0.6-0.3-0.2-0.3-0.2-0.6 0.1-0.3 0.3-0.6 0.3-0.2 0.7-0.2 0.3 0.1 0.5 0.4 0.3 0.2 0.2 0.6z"></path><path class="b" d="m13.1 18.7q-0.1 0.3-0.3 0.5-0.2 0.1-0.5 0.1-0.3 0-0.5-0.3-0.2-0.2-0.1-0.5 0-0.3 0.2-0.5 0.3-0.1 0.6-0.1 0.2 0 0.4 0.3 0.2 0.2 0.2 0.5z"></path><path class="a" d="m25 17.7q-0.2-0.3-0.3-0.7c-0.4-1.3-1.2-4.7 0.9-5.1 2.6-0.5 7.8 0.5 5.3 7.7-2.6 7.2-7.2 5.9-8.4 4.9-1.2-1-1.1-4.1 1.1-4.9 1.7-0.7 1.5-1.5 1.4-1.9z"></path><path class="a" d="m27.8 9.9q0 0.3-0.2 0.6-0.1 0.3-0.4 0.5-0.3 0.3-0.6 0.4-0.3 0-0.6 0-0.4 0-0.7-0.2-0.3-0.2-0.5-0.4-0.2-0.3-0.3-0.6-0.1-0.3-0.1-0.7 0.1-0.3 0.2-0.6 0.2-0.3 0.5-0.5 0.2-0.3 0.6-0.3 0.3-0.1 0.6-0.1 0.4 0 0.7 0.2 0.3 0.2 0.5 0.4 0.2 0.3 0.3 0.6 0.1 0.3 0 0.7z"></path><path class="a" d="m30 10.8q0 0.2-0.1 0.4-0.1 0.2-0.2 0.3-0.2 0.1-0.4 0.2-0.2 0.1-0.4 0-0.2 0-0.4-0.1-0.1-0.1-0.3-0.2-0.1-0.2-0.1-0.4-0.1-0.2-0.1-0.4 0.1-0.2 0.1-0.3 0.1-0.2 0.3-0.3 0.2-0.2 0.3-0.2 0.2-0.1 0.4-0.1 0.2 0.1 0.4 0.2 0.2 0.1 0.3 0.2 0.1 0.2 0.2 0.4 0 0.1 0 0.3z"></path><path class="a" d="m31.7 12.1q0 0.4-0.3 0.6-0.3 0.3-0.7 0.2-0.4 0-0.6-0.3-0.2-0.3-0.2-0.7 0-0.3 0.3-0.6 0.3-0.2 0.7-0.1 0.4 0 0.6 0.3 0.2 0.3 0.2 0.6z"></path><path class="a" d="m32.9 13.8q0 0.3-0.3 0.5-0.3 0.2-0.6 0.2-0.4 0-0.6-0.3-0.2-0.3-0.2-0.6 0.1-0.4 0.3-0.6 0.3-0.2 0.7-0.2 0.3 0.1 0.5 0.3 0.2 0.3 0.2 0.7z"></path><path class="a" d="m33.3 15.6q-0.1 0.3-0.3 0.5-0.2 0.2-0.5 0.1-0.3 0-0.5-0.2-0.2-0.3-0.1-0.5 0-0.3 0.2-0.5 0.3-0.2 0.5-0.2 0.3 0.1 0.5 0.3 0.2 0.2 0.2 0.5z"></path></svg>